<svg width="20" height="20" viewBox="0 0 20 20" fill="none" xmlns="http://www.w3.org/2000/svg">
<path fill-rule="evenodd" clip-rule="evenodd" d="M4.58301 6.04102C4.92819 6.04102 5.20801 6.32084 5.20801 6.66602V17.4993C5.20801 17.8445 4.92819 18.1243 4.58301 18.1243C4.23783 18.1243 3.95801 17.8445 3.95801 17.4993V6.66602C3.95801 6.32084 4.23783 6.04102 4.58301 6.04102Z" fill="#FF749F"/>
<path fill-rule="evenodd" clip-rule="evenodd" d="M10 11.459C10.3452 11.459 10.625 11.7388 10.625 12.084V17.5007C10.625 17.8458 10.3452 18.1257 10 18.1257C9.65482 18.1257 9.375 17.8458 9.375 17.5007V12.084C9.375 11.7388 9.65482 11.459 10 11.459Z" fill="#FF749F"/>
<path fill-rule="evenodd" clip-rule="evenodd" d="M10 1.875C10.3452 1.875 10.625 2.15482 10.625 2.5V7.91667C10.625 8.26185 10.3452 8.54167 10 8.54167C9.65482 8.54167 9.375 8.26185 9.375 7.91667V2.5C9.375 2.15482 9.65482 1.875 10 1.875Z" fill="#FF749F"/>
<path fill-rule="evenodd" clip-rule="evenodd" d="M15.417 1.875C15.7622 1.875 16.042 2.15482 16.042 2.5V13.3333C16.042 13.6785 15.7622 13.9583 15.417 13.9583C15.0718 13.9583 14.792 13.6785 14.792 13.3333V2.5C14.792 2.15482 15.0718 1.875 15.417 1.875Z" fill="#FF749F"/>
<path fill-rule="evenodd" clip-rule="evenodd" d="M1.875 4.58333C1.875 3.08756 3.08756 1.875 4.58333 1.875C6.07909 1.875 7.29167 3.08756 7.29167 4.58333C7.29167 6.07909 6.07909 7.29167 4.58333 7.29167C3.08756 7.29167 1.875 6.07909 1.875 4.58333ZM4.58333 3.125C3.77792 3.125 3.125 3.77792 3.125 4.58333C3.125 5.38874 3.77792 6.04167 4.58333 6.04167C5.38874 6.04167 6.04167 5.38874 6.04167 4.58333C6.04167 3.77792 5.38874 3.125 4.58333 3.125Z" fill="#FF749F"/>
<path fill-rule="evenodd" clip-rule="evenodd" d="M7.29199 9.99935C7.29199 8.50359 8.50456 7.29102 10.0003 7.29102C11.4961 7.29102 12.7087 8.50359 12.7087 9.99935C12.7087 11.4951 11.4961 12.7077 10.0003 12.7077C8.50456 12.7077 7.29199 11.4951 7.29199 9.99935ZM10.0003 8.54102C9.19492 8.54102 8.54199 9.19394 8.54199 9.99935C8.54199 10.8048 9.19492 11.4577 10.0003 11.4577C10.8057 11.4577 11.4587 10.8048 11.4587 9.99935C11.4587 9.19394 10.8057 8.54102 10.0003 8.54102Z" fill="#FF749F"/>
<path fill-rule="evenodd" clip-rule="evenodd" d="M12.708 15.4173C12.708 13.9216 13.9206 12.709 15.4163 12.709C16.9121 12.709 18.1247 13.9216 18.1247 15.4173C18.1247 16.9131 16.9121 18.1257 15.4163 18.1257C13.9206 18.1257 12.708 16.9131 12.708 15.4173ZM15.4163 13.959C14.6109 13.959 13.958 14.6119 13.958 15.4173C13.958 16.2227 14.6109 16.8757 15.4163 16.8757C16.2217 16.8757 16.8747 16.2227 16.8747 15.4173C16.8747 14.6119 16.2217 13.959 15.4163 13.959Z" fill="#FF749F"/>
</svg>
