<svg width="20" height="20" viewBox="0 0 20 20" fill="none" xmlns="http://www.w3.org/2000/svg">
<path fill-rule="evenodd" clip-rule="evenodd" d="M15 1.0415C15.3452 1.0415 15.625 1.32133 15.625 1.6665V18.1248C15.625 18.47 15.3452 18.7498 15 18.7498C14.6548 18.7498 14.375 18.47 14.375 18.1248V1.6665C14.375 1.32133 14.6548 1.0415 15 1.0415Z" fill="white"/>
<path fill-rule="evenodd" clip-rule="evenodd" d="M11.2251 14.5581C11.4691 14.314 11.8649 14.314 12.1089 14.5581L15.0003 17.4495L17.8917 14.5581C18.1358 14.314 18.5315 14.314 18.7756 14.5581C19.0197 14.8021 19.0197 15.1979 18.7756 15.4419L15.4423 18.7753C15.1982 19.0194 14.8025 19.0194 14.5584 18.7753L11.2251 15.4419C10.981 15.1979 10.981 14.8021 11.2251 14.5581Z" fill="white"/>
<path fill-rule="evenodd" clip-rule="evenodd" d="M5 18.958C4.65482 18.958 4.375 18.6782 4.375 18.333L4.375 1.87467C4.375 1.5295 4.65482 1.24967 5 1.24967C5.34518 1.24967 5.625 1.5295 5.625 1.87467L5.625 18.333C5.625 18.6782 5.34518 18.958 5 18.958Z" fill="white"/>
<path fill-rule="evenodd" clip-rule="evenodd" d="M8.77593 5.44194C8.53185 5.68602 8.13612 5.68602 7.89204 5.44194L5.00065 2.55055L2.10926 5.44194C1.86518 5.68602 1.46945 5.68602 1.22538 5.44194C0.981298 5.19786 0.981298 4.80214 1.22538 4.55806L4.55871 1.22472C4.80279 0.980647 5.19852 0.980647 5.44259 1.22472L8.77593 4.55806C9.02 4.80214 9.02 5.19786 8.77593 5.44194Z" fill="white"/>
</svg>
