<svg width="24" height="24" viewBox="0 0 24 24" fill="none" xmlns="http://www.w3.org/2000/svg">
<path fill-rule="evenodd" clip-rule="evenodd" d="M1.92895 8.01379C2.07145 7.84643 2.2802 7.75 2.50001 7.75H21.5C21.7198 7.75 21.9286 7.84643 22.0711 8.01379C22.2136 8.18116 22.2755 8.40261 22.2404 8.6196L20.1404 21.6196C20.0817 21.9829 19.7681 22.25 19.4 22.25H4.60001C4.23196 22.25 3.9183 21.9829 3.8596 21.6196L1.7596 8.6196C1.72455 8.40261 1.78645 8.18116 1.92895 8.01379ZM3.38088 9.25L5.23857 20.75H18.7614L20.6191 9.25H3.38088Z" fill="#FF749F"/>
<path fill-rule="evenodd" clip-rule="evenodd" d="M5.75 8.5C5.75 4.83485 8.48814 1.75 12 1.75C15.5119 1.75 18.25 4.83485 18.25 8.5C18.25 8.91421 17.9142 9.25 17.5 9.25C17.0858 9.25 16.75 8.91421 16.75 8.5C16.75 5.53775 14.5632 3.25 12 3.25C9.43676 3.25 7.25 5.53775 7.25 8.5C7.25 8.91421 6.91421 9.25 6.5 9.25C6.08579 9.25 5.75 8.91421 5.75 8.5Z" fill="#FF749F"/>
</svg>
