<svg width="20" height="20" viewBox="0 0 20 20" fill="none" xmlns="http://www.w3.org/2000/svg">
<path fill-rule="evenodd" clip-rule="evenodd" d="M2.6875 4.979C2.6875 4.63383 2.96732 4.354 3.3125 4.354H16.6458C16.991 4.354 17.2708 4.63383 17.2708 4.979C17.2708 5.32418 16.991 5.604 16.6458 5.604H3.3125C2.96732 5.604 2.6875 5.32418 2.6875 4.979Z" fill="#FF749F"/>
<path fill-rule="evenodd" clip-rule="evenodd" d="M2.6875 9.979C2.6875 9.63383 2.96732 9.354 3.3125 9.354H16.6458C16.991 9.354 17.2708 9.63383 17.2708 9.979C17.2708 10.3242 16.991 10.604 16.6458 10.604H3.3125C2.96732 10.604 2.6875 10.3242 2.6875 9.979Z" fill="#FF749F"/>
<path fill-rule="evenodd" clip-rule="evenodd" d="M2.6875 14.979C2.6875 14.6338 2.96732 14.354 3.3125 14.354H16.6458C16.991 14.354 17.2708 14.6338 17.2708 14.979C17.2708 15.3242 16.991 15.604 16.6458 15.604H3.3125C2.96732 15.604 2.6875 15.3242 2.6875 14.979Z" fill="#FF749F"/>
</svg>
