<svg width="28" height="28" viewBox="0 0 28 28" fill="none" xmlns="http://www.w3.org/2000/svg">
<path fill-rule="evenodd" clip-rule="evenodd" d="M1.4585 12.2507C1.4585 6.2906 6.29011 1.45898 12.2502 1.45898C18.2102 1.45898 23.0418 6.2906 23.0418 12.2507C23.0418 18.2107 18.2102 23.0423 12.2502 23.0423C6.29011 23.0423 1.4585 18.2107 1.4585 12.2507ZM12.2502 3.20898C7.25661 3.20898 3.2085 7.2571 3.2085 12.2507C3.2085 17.2442 7.25661 21.2923 12.2502 21.2923C17.2437 21.2923 21.2918 17.2442 21.2918 12.2507C21.2918 7.2571 17.2437 3.20898 12.2502 3.20898Z" fill="#FF558A"/>
<path fill-rule="evenodd" clip-rule="evenodd" d="M8.3315 7.74807C9.33343 6.74621 10.72 6.125 12.2501 6.125C13.7801 6.125 15.1667 6.74621 16.1686 7.74809C16.5103 8.0898 16.5103 8.64382 16.1686 8.98553C15.8269 9.32724 15.2728 9.32724 14.9311 8.98553C14.244 8.29843 13.2973 7.875 12.2501 7.875C11.2028 7.875 10.2561 8.29842 9.56889 8.98555C9.22717 9.32724 8.67315 9.32723 8.33146 8.98551C7.98976 8.64378 7.98978 8.08977 8.3315 7.74807Z" fill="#FF558A"/>
<path fill-rule="evenodd" clip-rule="evenodd" d="M18.7607 18.7602C19.1024 18.4185 19.6564 18.4185 19.9981 18.7602L24.9479 23.7099C25.2896 24.0517 25.2896 24.6057 24.9479 24.9474C24.6062 25.2891 24.0521 25.2891 23.7104 24.9474L18.7607 19.9976C18.419 19.6559 18.419 19.1019 18.7607 18.7602Z" fill="#FF558A"/>
</svg>
