<?xml version="1.0" standalone="no"?>
<!DOCTYPE svg PUBLIC "-//W3C//DTD SVG 20010904//EN"
 "http://www.w3.org/TR/2001/REC-SVG-20010904/DTD/svg10.dtd">
<svg version="1.0" xmlns="http://www.w3.org/2000/svg"
 width="260.000000pt" height="260.000000pt" viewBox="0 0 260.000000 260.000000"
 preserveAspectRatio="xMidYMid meet">
<metadata>
Created by potrace 1.14, written by Peter Selinger 2001-2017
</metadata>
<g transform="translate(0.000000,260.000000) scale(0.100000,-0.100000)"
fill="#000000" stroke="none">
<path d="M1239 2193 c-41 -47 -131 -185 -155 -238 -10 -22 -19 -42 -21 -44 -1
-2 -27 13 -58 34 -66 43 -230 122 -272 131 -18 4 -33 1 -40 -8 -17 -20 -33
-147 -33 -260 l0 -103 -147 0 c-82 0 -165 -4 -185 -8 -33 -7 -38 -11 -38 -37
0 -39 41 -147 90 -238 83 -153 193 -267 320 -331 41 -20 86 -40 99 -44 l24 -6
-33 -43 c-78 -104 -151 -223 -148 -242 3 -21 8 -21 225 -21 l221 0 12 -40 c17
-56 148 -310 171 -331 15 -14 21 -14 34 -4 33 27 162 279 180 350 l6 25 222 0
c215 0 222 1 225 20 3 19 -82 157 -152 248 l-29 38 24 6 c13 4 60 25 104 47
104 51 229 175 294 290 58 102 111 232 111 273 0 29 -4 33 -37 40 -21 4 -104
8 -184 8 l-146 0 -6 145 c-3 82 -11 162 -19 185 -12 36 -17 40 -45 39 -36 -2
-193 -74 -277 -128 -32 -20 -59 -36 -61 -34 -1 2 -17 32 -35 68 -62 125 -158
250 -190 250 -10 0 -33 -17 -51 -37z m112 -115 c116 -163 163 -306 158 -480
-4 -110 3 -134 33 -123 19 8 25 28 33 115 6 59 -11 195 -30 241 -8 21 105 98
213 145 70 31 77 32 87 16 5 -9 9 -87 9 -172 0 -176 -12 -236 -71 -354 -40
-80 -138 -188 -223 -246 -57 -39 -160 -94 -160 -86 0 3 13 25 30 49 16 25 46
79 66 121 30 62 34 79 24 91 -24 29 -40 14 -84 -72 -51 -102 -132 -216 -149
-211 -21 7 -125 169 -157 244 -44 105 -60 178 -60 270 0 98 27 210 74 308 38
78 131 216 146 216 5 0 33 -33 61 -72z m-391 -178 c61 -40 80 -57 75 -69 -4
-9 -14 -52 -22 -96 -16 -89 -12 -182 13 -280 16 -62 95 -233 136 -295 l23 -35
-60 34 c-212 119 -331 259 -382 451 -18 70 -25 293 -10 362 l8 37 68 -29 c38
-15 106 -52 151 -80z m-295 -262 c3 -3 13 -32 22 -65 49 -188 200 -364 407
-473 l58 -30 -86 0 c-302 0 -519 144 -656 433 -54 113 -58 134 -28 140 34 7
275 3 283 -5z m1541 4 l22 -7 -30 -74 c-48 -122 -106 -210 -198 -301 -61 -62
-104 -95 -151 -118 -94 -45 -215 -72 -329 -72 l-95 1 71 37 c202 107 334 261
394 459 14 46 28 73 38 76 26 7 255 6 278 -1z m-1150 -638 l51 -6 -18 -49
c-11 -27 -19 -71 -19 -98 0 -48 0 -48 -37 -55 -21 -3 -100 -6 -176 -6 l-138 0
32 48 c18 26 55 78 83 115 l51 68 60 -6 c33 -3 83 -8 111 -11z m336 0 c21 -13
51 -94 55 -149 4 -48 0 -75 -22 -135 -27 -76 -125 -270 -136 -270 -12 0 -108
197 -134 275 -33 96 -30 170 7 237 18 34 31 44 58 50 36 7 157 1 172 -8z m354
-51 c28 -38 65 -89 83 -115 l32 -48 -138 0 c-76 0 -155 3 -175 6 -37 7 -38 7
-38 53 -1 25 -9 69 -19 98 l-18 52 66 6 c36 3 75 7 86 9 65 10 70 8 121 -61z"/>
</g>
</svg>
