<svg width="20" height="20" viewBox="0 0 20 20" fill="none" xmlns="http://www.w3.org/2000/svg">
<path fill-rule="evenodd" clip-rule="evenodd" d="M1.60811 6.67832C1.72686 6.53885 1.90081 6.4585 2.08399 6.4585H17.9173C18.1005 6.4585 18.2745 6.53885 18.3932 6.67832C18.5119 6.81779 18.5635 7.00233 18.5343 7.18317L16.7843 18.0165C16.7354 18.3193 16.474 18.5418 16.1673 18.5418H3.83399C3.52728 18.5418 3.2659 18.3193 3.21699 18.0165L1.46699 7.18317C1.43778 7.00233 1.48936 6.81779 1.60811 6.67832ZM2.81805 7.7085L4.36613 17.2918H15.6352L17.1833 7.7085H2.81805Z" fill="#73D982"/>
<path fill-rule="evenodd" clip-rule="evenodd" d="M4.79102 7.0835C4.79102 4.0292 7.0728 1.4585 9.99935 1.4585C12.9259 1.4585 15.2077 4.0292 15.2077 7.0835C15.2077 7.42867 14.9279 7.7085 14.5827 7.7085C14.2375 7.7085 13.9577 7.42867 13.9577 7.0835C13.9577 4.61495 12.1354 2.7085 9.99935 2.7085C7.86331 2.7085 6.04102 4.61495 6.04102 7.0835C6.04102 7.42867 5.76119 7.7085 5.41602 7.7085C5.07084 7.7085 4.79102 7.42867 4.79102 7.0835Z" fill="#73D982"/>
</svg>
