<svg width="20" height="20" viewBox="0 0 20 20" fill="none" xmlns="http://www.w3.org/2000/svg">
<path fill-rule="evenodd" clip-rule="evenodd" d="M2.42383 2.17773C2.76901 2.17773 3.04883 2.45756 3.04883 2.80273V5.20803H5.45414C5.79932 5.20803 6.07914 5.48785 6.07914 5.83303C6.07914 6.17821 5.79932 6.45803 5.45414 6.45803H2.42383C2.07865 6.45803 1.79883 6.17821 1.79883 5.83303V2.80273C1.79883 2.45756 2.07865 2.17773 2.42383 2.17773Z" fill="white"/>
<path fill-rule="evenodd" clip-rule="evenodd" d="M2.24037 5.51986C3.78847 2.84429 6.68309 1.04199 9.99935 1.04199C14.9469 1.04199 18.9577 5.05277 18.9577 10.0003C18.9577 14.9479 14.9469 18.9587 9.99935 18.9587C5.0518 18.9587 1.04102 14.9479 1.04102 10.0003C1.04102 9.65515 1.32084 9.37533 1.66602 9.37533C2.01119 9.37533 2.29102 9.65515 2.29102 10.0003C2.29102 14.2575 5.74215 17.7087 9.99935 17.7087C14.2565 17.7087 17.7077 14.2575 17.7077 10.0003C17.7077 5.74313 14.2565 2.29199 9.99935 2.29199C7.14728 2.29199 4.65615 3.84062 3.32231 6.14588C3.14944 6.44465 2.7671 6.54671 2.46833 6.37384C2.16956 6.20097 2.06749 5.81863 2.24037 5.51986Z" fill="white"/>
<path fill-rule="evenodd" clip-rule="evenodd" d="M10.0025 4.375C10.3477 4.37503 10.6275 4.65488 10.6275 5.00006L10.627 9.74481L13.977 13.0948C14.2211 13.3389 14.2211 13.7346 13.977 13.9787C13.7329 14.2228 13.3372 14.2228 13.0931 13.9787L9.56001 10.4456C9.44279 10.3284 9.37694 10.1694 9.37695 10.0036L9.37745 4.99994C9.37749 4.65476 9.65734 4.37497 10.0025 4.375Z" fill="white"/>
</svg>
