<svg width="20" height="20" viewBox="0 0 20 20" fill="none" xmlns="http://www.w3.org/2000/svg">
<path fill-rule="evenodd" clip-rule="evenodd" d="M9.99935 2.2915C5.74215 2.2915 2.29102 5.74264 2.29102 9.99984C2.29102 14.257 5.74215 17.7082 9.99935 17.7082C14.2565 17.7082 17.7077 14.257 17.7077 9.99984C17.7077 5.74264 14.2565 2.2915 9.99935 2.2915ZM1.04102 9.99984C1.04102 5.05229 5.0518 1.0415 9.99935 1.0415C14.9469 1.0415 18.9577 5.05229 18.9577 9.99984C18.9577 14.9474 14.9469 18.9582 9.99935 18.9582C5.0518 18.9582 1.04102 14.9474 1.04102 9.99984Z" fill="#73D982"/>
<path fill-rule="evenodd" clip-rule="evenodd" d="M13.3593 6.64155C13.6033 6.88563 13.6033 7.28136 13.3593 7.52544L7.52593 13.3588C7.28185 13.6028 6.88612 13.6028 6.64204 13.3588C6.39796 13.1147 6.39796 12.719 6.64204 12.4749L12.4754 6.64155C12.7195 6.39748 13.1152 6.39748 13.3593 6.64155Z" fill="#73D982"/>
<rect x="6.45898" y="6.4585" width="2.08333" height="2.08333" rx="1.04167" fill="#73D982"/>
<rect x="11.459" y="11.4585" width="2.08333" height="2.08333" rx="1.04167" fill="#73D982"/>
</svg>
