<svg width="20" height="20" viewBox="0 0 20 20" fill="none" xmlns="http://www.w3.org/2000/svg">
<g clip-path="url(#clip0_601_15997)">
<path d="M19.8906 8.68728L17.8906 6.18728C17.7179 5.97152 17.4032 5.93657 17.1875 6.10915C16.9717 6.28173 16.9368 6.59652 17.1092 6.81228L18.4596 8.49975H13.5C13.2238 8.49975 13 8.72359 13 8.99978C13 9.27581 13.2238 9.49965 13.5 9.49965H18.4599L17.1095 11.1871C16.9369 11.4029 16.972 11.7177 17.1878 11.8902C17.4034 12.063 17.7182 12.0279 17.8909 11.8121L19.8909 9.31228C20.0367 9.12932 20.0366 8.86992 19.8906 8.68728Z" fill="#73D982"/>
<path d="M2.50003 9.99997C2.77591 10.0001 2.99976 9.77658 2.99991 9.50055C2.99991 9.5004 2.99991 9.50024 2.99991 9.49994V8.50003C2.99991 8.22385 2.77606 8 2.50003 8C2.22385 8 2 8.22385 2 8.50003V9.49994C2 9.77612 2.22385 9.99997 2.50003 9.99997Z" fill="#73D982"/>
<path d="M10.4999 7.80702e-08H0.500031C0.223999 -0.00015251 0.000152588 0.223389 0 0.49942V0.50003V17.4997C0 17.7231 0.148163 17.9192 0.362701 17.9806L7.36267 19.9806C7.62817 20.0565 7.90482 19.9026 7.98065 19.6371C7.99332 19.5924 7.99988 19.5462 7.99988 19.4997V17.9997H10.4997C10.7758 17.9999 10.9996 17.7763 10.9998 17.5003C10.9998 17.5001 10.9998 17.5 10.9998 17.4997V0.50003C10.9999 0.223999 10.7764 0.000152666 10.5003 7.80701e-08C10.5002 7.80701e-08 10.5 7.80702e-08 10.4999 7.80702e-08ZM6.99997 18.8367L1.00006 17.1228V1.16318L6.99997 2.87704V18.8367ZM9.99985 16.9998H7.99988V2.5C7.99973 2.27661 7.85172 2.08038 7.63702 2.01904L4.07043 1.00006H9.99985V16.9998Z" fill="#73D982"/>
</g>
<defs>
<clipPath id="clip0_601_15997">
<rect width="20" height="20" fill="white"/>
</clipPath>
</defs>
</svg>
