<svg width="20" height="20" viewBox="0 0 20 20" fill="none" xmlns="http://www.w3.org/2000/svg">
<path fill-rule="evenodd" clip-rule="evenodd" d="M6.45898 5.41667C6.45898 3.46066 8.04464 1.875 10.0007 1.875C11.9567 1.875 13.5423 3.46066 13.5423 5.41667C13.5423 7.37268 11.9567 8.95833 10.0007 8.95833C8.04464 8.95833 6.45898 7.37268 6.45898 5.41667ZM10.0007 3.125C8.735 3.125 7.70898 4.15101 7.70898 5.41667C7.70898 6.68232 8.735 7.70833 10.0007 7.70833C11.2663 7.70833 12.2923 6.68232 12.2923 5.41667C12.2923 4.15101 11.2663 3.125 10.0007 3.125Z" fill="#73D982"/>
<path fill-rule="evenodd" clip-rule="evenodd" d="M7.80584 11.042H12.1942C13.1043 11.042 13.8255 11.042 14.4069 11.0895C15.0014 11.138 15.5044 11.2394 15.9637 11.4734C16.7085 11.8529 17.3141 12.4585 17.6936 13.2033C17.9276 13.6626 18.0289 14.1656 18.0775 14.7601C18.125 15.3415 18.125 16.0627 18.125 16.9728V17.5003C18.125 17.8455 17.8452 18.1253 17.5 18.1253H2.5C2.15482 18.1253 1.875 17.8455 1.875 17.5003L1.875 16.9728C1.875 16.0627 1.87499 15.3415 1.92249 14.7601C1.97106 14.1656 2.0724 13.6626 2.30643 13.2033C2.68593 12.4585 3.29147 11.8529 4.0363 11.4734C4.49561 11.2394 4.99864 11.138 5.59312 11.0895C6.17447 11.042 6.89572 11.042 7.80584 11.042ZM4.60377 12.5872C4.09417 12.8468 3.67985 13.2612 3.42019 13.7708C3.29091 14.0245 3.21059 14.3447 3.16834 14.8619C3.1274 15.3629 3.12513 15.9969 3.12501 16.8753H16.875C16.8749 15.9969 16.8726 15.3629 16.8317 14.8619C16.7894 14.3447 16.7091 14.0245 16.5798 13.7708C16.3202 13.2612 15.9058 12.8468 15.3962 12.5872M4.60377 12.5872C4.8575 12.4579 5.17773 12.3776 5.69491 12.3353C6.21939 12.2925 6.8896 12.292 7.83333 12.292H12.1667C13.1104 12.292 13.7806 12.2925 14.3051 12.3353C14.8223 12.3776 15.1425 12.4579 15.3962 12.5872" fill="#73D982"/>
</svg>
