<svg width="192" height="28" viewBox="0 0 192 28" fill="none" xmlns="http://www.w3.org/2000/svg">
<mask id="mask0_426_41544" style="mask-type:luminance" maskUnits="userSpaceOnUse" x="0" y="0" width="29" height="28">
<path d="M28.0919 0H0V28H28.0919V0Z" fill="white"/>
</mask>
<g mask="url(#mask0_426_41544)">
<path d="M15.9739 20.9077C14.2247 19.9984 13.3614 18.2013 14.0456 16.8938C14.7298 15.5863 16.7025 15.2634 18.4516 16.1727C20.2008 17.082 22.7551 21.4214 22.7551 21.4214C22.7551 21.4214 17.7231 21.817 15.9739 20.9077Z" fill="#73D982"/>
<path d="M12.1177 20.9077C13.8668 19.9984 14.7301 18.2013 14.0459 16.8938C13.3617 15.5863 11.3891 15.2634 9.63997 16.1727C7.89083 17.082 5.33643 21.4214 5.33643 21.4214C5.33643 21.4214 10.3685 21.817 12.1177 20.9077Z" fill="#73D982"/>
<path d="M11.3667 20.4548C11.3667 18.4886 12.5661 16.8945 14.0457 16.8945C15.5252 16.8945 16.7246 18.4886 16.7246 20.4548C16.7246 22.4211 14.0457 26.6853 14.0457 26.6853C14.0457 26.6853 11.3667 22.4211 11.3667 20.4548Z" fill="#73D982"/>
<path d="M13.1526 20.4548C13.1526 18.9047 13.8982 17.5868 14.9387 17.0979C14.6593 16.9666 14.3588 16.8945 14.0457 16.8945C12.5661 16.8945 11.3667 18.4886 11.3667 20.4548C11.3667 22.4211 14.0457 26.6853 14.0457 26.6853C14.0457 26.6853 14.4468 26.0466 14.9387 25.1499C14.1594 23.7291 13.1526 21.6603 13.1526 20.4548Z" fill="#4BBA3A"/>
<path d="M18.9655 10.0732C22.7285 7.72715 27.6735 8.84362 27.6735 8.84362C27.6735 8.84362 26.517 13.7639 22.7539 16.1101C18.9908 18.4562 14.0459 17.3397 14.0459 17.3397C14.0459 17.3397 15.2023 12.4195 18.9655 10.0732Z" fill="#FFDCE7"/>
<path d="M9.12644 10.0732C5.36328 7.72711 0.418457 8.84365 0.418457 8.84365C0.418457 8.84365 1.57488 13.764 5.338 16.1101C9.1011 18.4562 14.046 17.3397 14.046 17.3397C14.046 17.3397 12.8896 12.4193 9.12644 10.0732Z" fill="#FFDCE7"/>
<path d="M6.67748 14.9533C3.93461 13.2434 2.57686 10.1661 2.04213 8.62305C1.05382 8.6991 0.418457 8.84245 0.418457 8.84245C0.418457 8.84245 1.57488 13.7629 5.338 16.109C9.10116 18.4551 14.046 17.3385 14.046 17.3385C14.046 17.3385 13.9607 16.9764 13.7618 16.4024C11.9926 16.5386 9.09184 16.4586 6.67748 14.9533Z" fill="#FF749F"/>
<path d="M6.93401 12.1824C4.71466 8.35098 6.00899 3.46484 6.00899 3.46484C6.00899 3.46484 10.9015 4.79071 13.1208 8.62212C15.3402 12.4535 14.0459 17.3397 14.0459 17.3397C14.0459 17.3397 9.15338 16.0138 6.93401 12.1824Z" fill="#FF97B7"/>
<path d="M8.64865 11.371C7.15139 8.78623 7.25335 5.72167 7.47822 4.00094C6.60649 3.627 6.00896 3.46484 6.00896 3.46484C6.00896 3.46484 4.71469 8.35098 6.934 12.1824C9.1533 16.0138 14.0459 17.3397 14.0459 17.3397C14.0459 17.3397 14.1829 16.8221 14.2913 15.9922C12.6679 15.2958 10.0926 13.8639 8.64865 11.371Z" fill="#FF749F"/>
<path d="M21.1579 12.1824C23.3772 8.35098 22.0829 3.46484 22.0829 3.46484C22.0829 3.46484 17.1904 4.79071 14.9711 8.62212C12.7518 12.4535 14.0461 17.3397 14.0461 17.3397C14.0461 17.3397 18.9386 16.0138 21.1579 12.1824Z" fill="#FF97B7"/>
<path d="M10.4741 9.32897C10.4741 4.90483 14.0461 1.31836 14.0461 1.31836C14.0461 1.31836 17.6181 4.90483 17.6181 9.32897C17.6181 13.7531 14.0461 17.3395 14.0461 17.3395C14.0461 17.3395 10.4741 13.7531 10.4741 9.32897Z" fill="#FAD8E8"/>
<path d="M12.26 9.32897C12.26 6.34858 13.881 3.74853 14.9391 2.36881C14.4266 1.70048 14.0461 1.31836 14.0461 1.31836C14.0461 1.31836 10.4741 4.90483 10.4741 9.32897C10.4741 13.7531 14.0461 17.3395 14.0461 17.3395C14.0461 17.3395 14.4266 16.9575 14.9391 16.2892C13.881 14.9094 12.26 12.3094 12.26 9.32897Z" fill="#FF749F"/>
<path d="M28.0282 8.62169C27.9691 8.5274 27.8746 8.4606 27.7659 8.43606C27.6674 8.41381 25.4339 7.92149 22.7934 8.30417C22.8713 7.59895 22.8864 6.94074 22.8709 6.37493C22.824 4.64592 22.5012 3.40951 22.4875 3.35771C22.429 3.13709 22.1942 3.00168 21.9729 3.06161C21.867 3.09031 19.4661 3.75452 17.2301 5.48748C16.9098 4.70155 16.5355 4.00891 16.1885 3.44577C15.2805 1.97183 14.3808 1.0619 14.3429 1.0239C14.1816 0.861853 13.9102 0.861797 13.7488 1.0239C13.7109 1.0619 12.8111 1.97183 11.9031 3.44577C11.5562 4.00897 11.182 4.70161 10.8616 5.4876C8.62599 3.75491 6.22524 3.09047 6.11875 3.06165C5.89752 3.00174 5.66266 3.13709 5.60417 3.35777C5.5905 3.40956 5.26768 4.64598 5.22074 6.37499C5.20539 6.94085 5.22046 7.59906 5.29843 8.30427C2.65858 7.92149 0.425274 8.41369 0.325817 8.43611C0.102514 8.48651 -0.0414805 8.71571 0.0107036 8.93817C0.0229822 8.99035 0.31979 10.2332 1.092 11.7821C1.80901 13.2202 3.08906 15.1997 5.11587 16.4632C5.89785 16.9507 6.72732 17.2916 7.5438 17.5277C6.21793 19.1081 5.02942 21.1186 4.97534 21.2106C4.82152 21.4719 5.00134 21.8139 5.30346 21.8376C5.38801 21.8443 6.45307 21.9258 7.76224 21.9258C8.86548 21.9258 10.1415 21.8675 11.1501 21.6582C11.7679 23.8285 13.598 26.7582 13.6911 26.9063C13.8523 27.1627 14.2396 27.1627 14.4006 26.9063C14.4937 26.7582 16.3239 23.8286 16.9417 21.6583C17.9497 21.8676 19.2256 21.9257 20.329 21.9257C21.6392 21.9257 22.7054 21.8441 22.7883 21.8376C23.0903 21.8139 23.2701 21.4719 23.1163 21.2105C23.0615 21.1173 21.8732 19.1072 20.548 17.5276C21.3644 17.2916 22.1938 16.9507 22.9757 16.4632C25.0025 15.1997 26.2826 13.2202 26.9996 11.7821C27.7719 10.2332 28.0686 8.99035 28.0809 8.93817C28.1064 8.8298 28.0873 8.71593 28.0282 8.62169ZM14.0461 1.9375C14.8835 2.89789 17.1991 5.86732 17.1991 9.32841C17.1991 9.86962 17.142 10.428 17.0291 10.9882C16.9836 11.2141 17.1304 11.434 17.3571 11.4794C17.5837 11.5248 17.8044 11.3784 17.8499 11.1526C17.9736 10.5384 18.0363 9.92469 18.0363 9.32841C18.0363 8.25726 17.833 7.23731 17.5329 6.31424C19.1595 4.99299 20.9698 4.27594 21.7716 4.00079C22.014 5.25105 22.5279 8.98178 20.7953 11.9732C19.4249 14.3388 16.9506 15.7225 15.3782 16.4038C15.995 15.5812 16.7622 14.39 17.316 12.9607C17.3994 12.7457 17.292 12.5041 17.0764 12.4212C16.8607 12.3381 16.6184 12.4451 16.5352 12.6601C15.7881 14.588 14.5967 16.0882 14.0458 16.7198C13.2086 15.7595 10.8925 12.7898 10.8925 9.32846C10.8925 5.87406 13.2094 2.89916 14.0461 1.9375ZM6.32012 4.00079C7.12192 4.27604 8.93224 4.99289 10.5589 6.31408C10.2588 7.23719 10.0553 8.25721 10.0553 9.32841C10.0553 11.7112 11.0602 13.8426 11.9031 15.2111C12.1838 15.6666 12.4636 16.0682 12.7174 16.4069C11.1462 15.7278 8.67064 14.3454 7.2965 11.9732C5.56365 8.98156 6.07779 5.25062 6.32012 4.00079ZM0.945497 9.17087C1.73378 9.04614 3.49621 8.849 5.42401 9.1682C5.61612 10.2261 5.96566 11.3445 6.57145 12.3904C7.76677 14.4539 9.70623 15.799 11.1227 16.564C11.5489 16.7941 11.9523 16.9864 12.3137 17.1444C10.5942 17.2659 7.83185 17.1721 5.55985 15.7556C2.62136 13.9237 1.3196 10.3877 0.945497 9.17087ZM6.05747 21.0467C6.55498 20.2567 7.49982 18.8258 8.45481 17.7516C9.42561 17.9497 10.3435 18.0149 11.0996 18.0212C11.1434 18.0216 11.1867 18.0218 11.2299 18.0218C11.3541 18.0218 11.4752 18.0201 11.5938 18.0175C11.1783 18.7066 10.9483 19.5577 10.9483 20.4543C10.9483 20.5765 10.9578 20.7064 10.9752 20.8423C9.45391 21.1579 7.18555 21.1014 6.05747 21.0467ZM14.0459 25.8777C13.1933 24.4284 11.7855 21.7614 11.7855 20.4542C11.7855 19.4677 12.1123 18.5591 12.6822 17.9555C13.3641 17.8933 13.8513 17.8045 14.0459 17.7654C14.2403 17.8045 14.7273 17.8933 15.4089 17.9555C15.9713 18.5516 16.3062 19.4798 16.3062 20.4542C16.3062 21.7614 14.8985 24.4284 14.0459 25.8777ZM22.0341 21.0467C20.9062 21.1013 18.6389 21.1578 17.1165 20.8421C17.1339 20.7063 17.1434 20.5763 17.1434 20.4543C17.1434 19.5557 16.9132 18.7059 16.4978 18.0175C16.6164 18.0201 16.7376 18.0218 16.8618 18.0218C16.9049 18.0218 16.9485 18.0216 16.9922 18.0212C17.7482 18.0149 18.6661 17.9497 19.6369 17.7516C20.5911 18.825 21.5364 20.2564 22.0341 21.0467ZM22.5319 15.7556C20.2599 17.1721 17.4974 17.2659 15.7778 17.1444C16.1393 16.9864 16.5427 16.7941 16.969 16.564C18.3854 15.799 20.3249 14.4539 21.5202 12.3904C22.126 11.3446 22.4755 10.2262 22.6677 9.16836C24.5906 8.85005 26.3566 9.04692 27.146 9.17125C26.7718 10.3888 25.4699 13.9239 22.5319 15.7556Z" fill="#1A2030"/>
</g>
<path d="M36.521 22.4466V5.61719H46.6452V7.42504H38.5655V13.1115H45.8866V14.9194H38.5655V22.4466H36.521ZM51.8289 5.61719V22.4466H49.8832V5.61719H51.8289ZM60.5371 22.7096C59.3938 22.7096 58.3908 22.4384 57.5279 21.896C56.6704 21.3537 55.9999 20.5949 55.5162 19.6198C55.0381 18.6447 54.799 17.5052 54.799 16.2014C54.799 14.8865 55.0381 13.7389 55.5162 12.7582C55.9999 11.7776 56.6704 11.0161 57.5279 10.4737C58.3908 9.93137 59.3938 9.66019 60.5371 9.66019C61.6803 9.66019 62.6807 9.93137 63.5381 10.4737C64.401 11.0161 65.0715 11.7776 65.5498 12.7582C66.0334 13.7389 66.2753 14.8865 66.2753 16.2014C66.2753 17.5052 66.0334 18.6447 65.5498 19.6198C65.0715 20.5949 64.401 21.3537 63.5381 21.896C62.6807 22.4384 61.6803 22.7096 60.5371 22.7096ZM60.5371 20.9675C61.4055 20.9675 62.12 20.7456 62.6807 20.3019C63.2413 19.8581 63.6563 19.2747 63.9256 18.5515C64.1949 17.8284 64.3295 17.0449 64.3295 16.2014C64.3295 15.3577 64.1949 14.5716 63.9256 13.8429C63.6563 13.1143 63.2413 12.5254 62.6807 12.0761C62.12 11.6269 61.4055 11.4023 60.5371 11.4023C59.6687 11.4023 58.9541 11.6269 58.3936 12.0761C57.8329 12.5254 57.418 13.1143 57.1486 13.8429C56.8793 14.5716 56.7446 15.3577 56.7446 16.2014C56.7446 17.0449 56.8793 17.8284 57.1486 18.5515C57.418 19.2747 57.8329 19.8581 58.3936 20.3019C58.9541 20.7456 59.6687 20.9675 60.5371 20.9675ZM71.6837 22.4466L67.8252 9.82455H69.8699L72.607 19.4884H72.7389L75.4431 9.82455H77.5208L80.1919 19.4555H80.3238L83.061 9.82455H85.1057L81.2472 22.4466H79.3346L76.5644 12.75H76.3665L73.5964 22.4466H71.6837ZM92.5566 22.7096C91.3364 22.7096 90.2839 22.4412 89.399 21.9042C88.5196 21.3619 87.8407 20.6059 87.3626 19.6362C86.8899 18.6611 86.6535 17.5271 86.6535 16.2342C86.6535 14.9414 86.8899 13.8018 87.3626 12.8157C87.8407 11.8241 88.5059 11.0517 89.3578 10.4984C90.2152 9.93959 91.2155 9.66019 92.3588 9.66019C93.0183 9.66019 93.6696 9.76976 94.3127 9.98889C94.9557 10.208 95.5411 10.5641 96.0687 11.0572C96.5963 11.5447 97.0169 12.1912 97.3302 12.9965C97.6434 13.8018 97.8001 14.7934 97.8001 15.9712V16.7929H88.0386V15.1167H95.8214C95.8214 14.4044 95.6785 13.7689 95.3927 13.2101C95.1123 12.6514 94.7112 12.2103 94.189 11.8872C93.6723 11.5639 93.0622 11.4023 92.3588 11.4023C91.5838 11.4023 90.9132 11.5941 90.347 11.9775C89.7865 12.3555 89.355 12.8485 89.0527 13.4567C88.7505 14.0648 88.5992 14.7167 88.5992 15.4125V16.5301C88.5992 17.4832 88.7641 18.2913 89.0939 18.9542C89.4292 19.6116 89.8936 20.1129 90.4873 20.4579C91.0808 20.7976 91.7707 20.9675 92.5566 20.9675C93.0678 20.9675 93.5294 20.8962 93.9416 20.7538C94.3594 20.6059 94.7194 20.3868 95.0217 20.0965C95.324 19.8006 95.5576 19.4335 95.7225 18.9952L97.6022 19.5212C97.4044 20.1567 97.0718 20.7155 96.6047 21.1976C96.1375 21.6742 95.5603 22.0468 94.8733 22.3152C94.1862 22.5781 93.4141 22.7096 92.5566 22.7096ZM100.76 22.4466V9.82455H102.64V11.731H102.772C103.002 11.1065 103.42 10.5997 104.025 10.2108C104.629 9.8218 105.311 9.62732 106.069 9.62732C106.212 9.62732 106.391 9.63006 106.605 9.63555C106.82 9.64102 106.982 9.64923 107.092 9.66019V11.6324C107.026 11.616 106.874 11.5913 106.638 11.5584C106.407 11.5201 106.163 11.5009 105.904 11.5009C105.289 11.5009 104.739 11.6296 104.256 11.8872C103.777 12.1392 103.398 12.4897 103.118 12.939C102.843 13.3827 102.706 13.8895 102.706 14.4592V22.4466H100.76ZM122.654 12.6514L120.905 13.1444C120.795 12.8541 120.634 12.5719 120.419 12.298C120.21 12.0186 119.924 11.7886 119.561 11.6077C119.199 11.427 118.735 11.3366 118.168 11.3366C117.393 11.3366 116.747 11.5146 116.231 11.8707C115.719 12.2213 115.464 12.6678 115.464 13.2101C115.464 13.6922 115.64 14.073 115.991 14.3524C116.343 14.6317 116.892 14.8647 117.64 15.0509L119.52 15.5111C120.652 15.7849 121.496 16.204 122.051 16.7683C122.606 17.3271 122.883 18.0475 122.883 18.9295C122.883 19.6527 122.676 20.2991 122.258 20.8689C121.846 21.4386 121.268 21.8878 120.526 22.2165C119.784 22.5452 118.921 22.7096 117.937 22.7096C116.645 22.7096 115.577 22.4302 114.73 21.8714C113.884 21.3126 113.348 20.4964 113.122 19.4226L114.969 18.9624C115.145 19.6418 115.478 20.1512 115.967 20.4909C116.462 20.8305 117.107 21.0004 117.905 21.0004C118.811 21.0004 119.531 20.8086 120.064 20.4251C120.602 20.0362 120.872 19.5705 120.872 19.0282C120.872 18.5899 120.718 18.2228 120.411 17.9271C120.103 17.6257 119.63 17.4011 118.992 17.2532L116.882 16.7601C115.722 16.4862 114.87 16.0616 114.326 15.4864C113.788 14.9057 113.518 14.1798 113.518 13.3088C113.518 12.5965 113.719 11.9665 114.12 11.4187C114.527 10.8709 115.079 10.4409 115.777 10.1286C116.48 9.81633 117.278 9.66019 118.168 9.66019C119.421 9.66019 120.405 9.93412 121.12 10.4819C121.84 11.0298 122.351 11.7529 122.654 12.6514ZM132.606 5.61719H135.046L140.784 19.5869H140.983L146.721 5.61719H149.161V22.4466H147.248V9.66019H147.083L141.807 22.4466H139.96L134.684 9.66019H134.519V22.4466H132.606V5.61719ZM158.306 22.7096C157.086 22.7096 156.034 22.4412 155.148 21.9042C154.27 21.3619 153.591 20.6059 153.112 19.6362C152.64 18.6611 152.403 17.5271 152.403 16.2342C152.403 14.9414 152.64 13.8018 153.112 12.8157C153.591 11.8241 154.256 11.0517 155.108 10.4984C155.964 9.93959 156.965 9.66019 158.109 9.66019C158.768 9.66019 159.419 9.76976 160.062 9.98889C160.705 10.208 161.29 10.5641 161.819 11.0572C162.346 11.5447 162.767 12.1912 163.08 12.9965C163.393 13.8018 163.549 14.7934 163.549 15.9712V16.7929H153.788V15.1167H161.571C161.571 14.4044 161.428 13.7689 161.143 13.2101C160.862 12.6514 160.46 12.2103 159.939 11.8872C159.423 11.5639 158.812 11.4023 158.109 11.4023C157.333 11.4023 156.663 11.5941 156.097 11.9775C155.536 12.3555 155.104 12.8485 154.803 13.4567C154.5 14.0648 154.349 14.7167 154.349 15.4125V16.5301C154.349 17.4832 154.513 18.2913 154.843 18.9542C155.179 19.6116 155.643 20.1129 156.237 20.4579C156.83 20.7976 157.52 20.9675 158.306 20.9675C158.818 20.9675 159.279 20.8962 159.692 20.7538C160.109 20.6059 160.47 20.3868 160.771 20.0965C161.073 19.8006 161.308 19.4335 161.473 18.9952L163.352 19.5212C163.153 20.1567 162.821 20.7155 162.355 21.1976C161.887 21.6742 161.31 22.0468 160.623 22.3152C159.936 22.5781 159.164 22.7096 158.306 22.7096ZM171.622 27.4429C170.681 27.4429 169.873 27.3223 169.197 27.0813C168.521 26.8458 167.958 26.5335 167.507 26.1445C167.062 25.761 166.708 25.3502 166.443 24.9119L167.994 23.8272C168.169 24.0572 168.392 24.3202 168.662 24.6161C168.931 24.9173 169.299 25.1776 169.767 25.3967C170.239 25.6213 170.857 25.7336 171.622 25.7336C172.643 25.7336 173.487 25.4871 174.152 24.9941C174.817 24.501 175.149 23.7286 175.149 22.6768V20.1129H174.985C174.842 20.3429 174.639 20.6278 174.375 20.9675C174.116 21.3016 173.742 21.6003 173.254 21.8631C172.77 22.1207 172.116 22.2494 171.291 22.2494C170.269 22.2494 169.351 22.0084 168.537 21.5262C167.729 21.0442 167.09 20.3429 166.616 19.4226C166.15 18.5022 165.916 17.3847 165.916 16.0698C165.916 14.7769 166.144 13.6512 166.6 12.6925C167.056 11.7283 167.691 10.9832 168.505 10.4573C169.319 9.92589 170.258 9.66019 171.325 9.66019C172.149 9.66019 172.803 9.79715 173.286 10.0711C173.776 10.3395 174.15 10.6463 174.408 10.9914C174.671 11.3311 174.875 11.6105 175.018 11.8297H175.216V9.82455H177.095V22.8082C177.095 23.8929 176.848 24.7749 176.353 25.4542C175.864 26.139 175.205 26.6403 174.375 26.958C173.55 27.2813 172.633 27.4429 171.622 27.4429ZM171.556 20.5073C172.336 20.5073 172.995 20.3293 173.534 19.9731C174.072 19.6171 174.482 19.1048 174.762 18.4365C175.043 17.7681 175.183 16.9684 175.183 16.0369C175.183 15.1275 175.045 14.325 174.771 13.6293C174.496 12.9335 174.088 12.3884 173.55 11.994C173.011 11.5995 172.347 11.4023 171.556 11.4023C170.73 11.4023 170.044 11.6105 169.494 12.0268C168.949 12.4432 168.541 13.002 168.266 13.7032C167.996 14.4044 167.862 15.1824 167.862 16.0369C167.862 16.9135 167.999 17.6887 168.274 18.3626C168.554 19.0309 168.967 19.5568 169.51 19.9403C170.06 20.3183 170.742 20.5073 171.556 20.5073ZM184.384 22.7425C183.582 22.7425 182.853 22.5918 182.199 22.2906C181.544 21.9837 181.025 21.5428 180.64 20.9675C180.256 20.3868 180.063 19.6855 180.063 18.8638C180.063 18.1407 180.206 17.5545 180.493 17.1052C180.778 16.6505 181.16 16.2945 181.638 16.0369C182.117 15.7795 182.644 15.5878 183.221 15.4618C183.803 15.3302 184.39 15.2262 184.977 15.1495C185.747 15.0509 186.37 14.9769 186.848 14.9276C187.332 14.8729 187.684 14.7824 187.905 14.6564C188.13 14.5304 188.242 14.3112 188.242 13.9991V13.9332C188.242 13.1225 188.019 12.4925 187.574 12.0432C187.135 11.5941 186.466 11.3694 185.571 11.3694C184.641 11.3694 183.914 11.5721 183.385 11.9775C182.858 12.3829 182.487 12.8157 182.273 13.2759L180.427 12.6185C180.756 11.8515 181.196 11.2544 181.745 10.8271C182.3 10.3943 182.905 10.093 183.56 9.92316C184.219 9.74785 184.868 9.66019 185.505 9.66019C185.911 9.66019 186.379 9.7095 186.906 9.8081C187.439 9.90125 187.953 10.0957 188.448 10.3916C188.948 10.6874 189.364 11.1339 189.693 11.731C190.023 12.3281 190.188 13.128 190.188 14.1305V22.4466H188.242V20.7374H188.142C188.011 21.0113 187.791 21.3044 187.483 21.6167C187.176 21.929 186.766 22.1946 186.255 22.4138C185.744 22.6329 185.12 22.7425 184.384 22.7425ZM184.681 21.0004C185.449 21.0004 186.098 20.8497 186.626 20.5484C187.159 20.2471 187.561 19.8581 187.83 19.3816C188.104 18.9049 188.242 18.4036 188.242 17.8777V16.1027C188.16 16.2014 187.978 16.2917 187.698 16.3739C187.423 16.4506 187.105 16.5191 186.741 16.5794C186.384 16.6341 186.036 16.6834 185.694 16.7272C185.359 16.7656 185.087 16.7985 184.878 16.8258C184.372 16.8916 183.9 16.9984 183.46 17.1463C183.026 17.2887 182.674 17.5052 182.405 17.7955C182.141 18.0804 182.009 18.4694 182.009 18.9624C182.009 19.6362 182.259 20.1458 182.76 20.4909C183.265 20.8305 183.905 21.0004 184.681 21.0004Z" fill="#FF558A"/>
<path d="M111.113 5.61719V7.09633C111.113 7.54555 111.031 8.02491 110.866 8.53439C110.706 9.03841 110.47 9.52872 110.157 10.0053C109.849 10.4765 109.475 10.8873 109.035 11.238L107.98 10.3833C108.326 9.89029 108.626 9.37806 108.879 8.84666C109.137 8.30978 109.266 7.7373 109.266 7.1292V5.61719H111.113Z" fill="#73D982"/>
</svg>
