<svg width="274" height="40" viewBox="0 0 274 40" fill="none" xmlns="http://www.w3.org/2000/svg">
<mask id="mask0_601_29665" style="mask-type:luminance" maskUnits="userSpaceOnUse" x="0" y="0" width="40" height="40">
<path d="M40 0H0V40H40V0Z" fill="white"/>
</mask>
<g mask="url(#mask0_601_29665)">
<path d="M22.7452 29.8678C20.2546 28.5688 19.0253 26.0015 19.9995 24.1336C20.9738 22.2658 23.7827 21.8045 26.2733 23.1035C28.7638 24.4025 32.401 30.6017 32.401 30.6017C32.401 30.6017 25.2359 31.1668 22.7452 29.8678Z" fill="#73D982"/>
<path d="M17.2545 29.8678C19.745 28.5688 20.9743 26.0015 20.0001 24.1336C19.0259 22.2658 16.217 21.8045 13.7264 23.1035C11.2358 24.4025 7.59863 30.6017 7.59863 30.6017C7.59863 30.6017 14.7638 31.1668 17.2545 29.8678Z" fill="#73D982"/>
<path d="M16.1855 29.2199C16.1855 26.411 17.8933 24.1338 20.0001 24.1338C22.1069 24.1338 23.8147 26.411 23.8147 29.2199C23.8147 32.0288 20.0001 38.1206 20.0001 38.1206C20.0001 38.1206 16.1855 32.0288 16.1855 29.2199Z" fill="#73D982"/>
<path d="M18.7285 29.2199C18.7285 27.0055 19.7902 25.1227 21.2717 24.4244C20.8738 24.2368 20.4461 24.1338 20.0001 24.1338C17.8933 24.1338 16.1855 26.411 16.1855 29.2199C16.1855 32.0288 20.0001 38.1206 20.0001 38.1206C20.0001 38.1206 20.5713 37.2082 21.2717 35.9272C20.1621 33.8974 18.7285 30.9421 18.7285 29.2199Z" fill="#4BBA3A"/>
<path d="M27.005 14.3888C32.3631 11.0372 39.4043 12.6322 39.4043 12.6322C39.4043 12.6322 37.7575 19.6612 32.3993 23.0129C27.041 26.3645 20 24.7695 20 24.7695C20 24.7695 21.6466 17.7406 27.005 14.3888Z" fill="#FFDCE7"/>
<path d="M12.995 14.3888C7.63663 11.0372 0.595703 12.6323 0.595703 12.6323C0.595703 12.6323 2.24233 19.6614 7.60063 23.0129C12.9589 26.3645 19.9999 24.7695 19.9999 24.7695C19.9999 24.7695 18.3533 17.7404 12.995 14.3888Z" fill="#FFDCE7"/>
<path d="M9.50791 21.3621C5.60234 18.9193 3.66906 14.5233 2.90765 12.3188C1.50039 12.4275 0.595703 12.6323 0.595703 12.6323C0.595703 12.6323 2.24233 19.6614 7.60063 23.013C12.959 26.3646 19.9999 24.7695 19.9999 24.7695C19.9999 24.7695 19.8784 24.2522 19.5953 23.4322C17.0761 23.6267 12.9457 23.5125 9.50791 21.3621Z" fill="#FF749F"/>
<path d="M9.87336 17.4019C6.71323 11.9284 8.55622 4.94824 8.55622 4.94824C8.55622 4.94824 15.5227 6.84234 18.6828 12.3158C21.8429 17.7892 20 24.7695 20 24.7695C20 24.7695 13.0335 22.8753 9.87336 17.4019Z" fill="#FF97B7"/>
<path d="M12.3148 16.2428C10.1829 12.5502 10.3281 8.17228 10.6483 5.71409C9.40699 5.1799 8.55618 4.94824 8.55618 4.94824C8.55618 4.94824 6.71327 11.9284 9.87334 17.4019C13.0334 22.8753 20 24.7695 20 24.7695C20 24.7695 20.195 24.03 20.3494 22.8445C18.0378 21.8496 14.3709 19.804 12.3148 16.2428Z" fill="#FF749F"/>
<path d="M30.1265 17.4019C33.2867 11.9284 31.4437 4.94824 31.4437 4.94824C31.4437 4.94824 24.4772 6.84234 21.3172 12.3158C18.1571 17.7892 20.0001 24.7695 20.0001 24.7695C20.0001 24.7695 26.9665 22.8753 30.1265 17.4019Z" fill="#FF97B7"/>
<path d="M14.9136 13.3261C14.9136 7.00586 19.9997 1.88232 19.9997 1.88232C19.9997 1.88232 25.0858 7.00586 25.0858 13.3261C25.0858 19.6463 19.9997 24.7697 19.9997 24.7697C19.9997 24.7697 14.9136 19.6463 14.9136 13.3261Z" fill="#FAD8E8"/>
<path d="M17.4565 13.3261C17.4565 9.06836 19.7646 5.35399 21.2713 3.38297C20.5415 2.42821 19.9997 1.88232 19.9997 1.88232C19.9997 1.88232 14.9136 7.00586 14.9136 13.3261C14.9136 19.6463 19.9997 24.7697 19.9997 24.7697C19.9997 24.7697 20.5415 24.2239 21.2713 23.2692C19.7646 21.2982 17.4565 17.5838 17.4565 13.3261Z" fill="#FF749F"/>
<path d="M39.9093 12.3162C39.8252 12.1815 39.6907 12.0861 39.5358 12.051C39.3956 12.0192 36.2153 11.3159 32.4555 11.8626C32.5664 10.8552 32.5878 9.91485 32.5659 9.10656C32.4991 6.63654 32.0394 4.87024 32.0199 4.79624C31.9366 4.48107 31.6022 4.28763 31.2872 4.37323C31.1364 4.41424 27.7178 5.36312 24.534 7.83877C24.0778 6.71601 23.5449 5.72652 23.0508 4.92204C21.7579 2.81641 20.4768 1.5165 20.4229 1.46223C20.1931 1.23073 19.8067 1.23065 19.5769 1.46223C19.5229 1.5165 18.2417 2.81641 16.9488 4.92204C16.4549 5.72661 15.922 6.71609 15.4658 7.83894C12.2825 5.36366 8.86411 4.41447 8.71248 4.3733C8.39747 4.28771 8.06306 4.48107 7.97977 4.79632C7.9603 4.87031 7.50064 6.63662 7.4338 9.10664C7.41195 9.91502 7.4334 10.8553 7.54443 11.8628C3.78555 11.3159 0.605547 12.0191 0.46393 12.0511C0.14597 12.1231 -0.0590641 12.4505 0.0152408 12.7683C0.0327244 12.8429 0.455348 14.6184 1.5549 16.8312C2.57585 18.8855 4.39851 21.7133 7.28448 23.5184C8.39793 24.2148 9.57902 24.7017 10.7416 25.0391C8.8537 27.2968 7.16139 30.169 7.08438 30.3004C6.86535 30.6736 7.1214 31.1622 7.55158 31.1961C7.67198 31.2057 9.18851 31.3221 11.0526 31.3221C12.6235 31.3221 14.4405 31.2388 15.8767 30.9397C16.7563 34.0402 19.3622 38.2255 19.4948 38.4371C19.7242 38.8034 20.2758 38.8034 20.505 38.4371C20.6376 38.2255 23.2436 34.0404 24.1232 30.9399C25.5586 31.2389 27.3753 31.3219 28.9464 31.3219C30.812 31.3219 32.3302 31.2054 32.4482 31.1961C32.8783 31.1622 33.1343 30.6736 32.9153 30.3002C32.8373 30.167 31.1452 27.2955 29.2583 25.0389C30.4207 24.7017 31.6017 24.2148 32.7151 23.5184C35.6011 21.7133 37.4237 18.8855 38.4447 16.8312C39.5444 14.6184 39.9669 12.8429 39.9844 12.7683C40.0206 12.6135 39.9935 12.4508 39.9093 12.3162ZM20.0002 2.76737C21.1926 4.13935 24.4898 8.3814 24.4898 13.3258C24.4898 14.099 24.4085 14.8967 24.2477 15.697C24.1829 16.0197 24.392 16.3338 24.7148 16.3987C25.0374 16.4635 25.3517 16.2544 25.4164 15.9317C25.5926 15.0544 25.6819 14.1776 25.6819 13.3258C25.6819 11.7956 25.3923 10.3385 24.965 9.01986C27.2812 7.13236 29.8589 6.10799 31.0006 5.71492C31.3457 7.50102 32.0774 12.8306 29.6103 17.104C27.6591 20.4835 24.1359 22.4602 21.8969 23.4335C22.7753 22.2584 23.8677 20.5566 24.6563 18.5148C24.775 18.2077 24.6221 17.8626 24.3151 17.744C24.0078 17.6254 23.6629 17.7783 23.5444 18.0854C22.4806 20.8396 20.7842 22.9827 19.9998 23.8849C18.8077 22.5131 15.5098 18.2707 15.5098 13.3259C15.5098 8.39102 18.8088 4.14117 20.0002 2.76737ZM8.9992 5.71492C10.1409 6.10814 12.7186 7.13221 15.0348 9.01963C14.6074 10.3384 14.3178 11.7955 14.3178 13.3258C14.3178 16.7298 15.7486 19.7746 16.9488 21.7297C17.3485 22.3804 17.7469 22.9541 18.1083 23.4379C15.871 22.4678 12.3461 20.493 10.3895 17.104C7.92206 12.8303 8.65415 7.50039 8.9992 5.71492ZM1.34629 13.1008C2.46873 12.9226 4.97825 12.6409 7.72324 13.0969C7.99678 14.6082 8.49449 16.206 9.35707 17.7001C11.0591 20.648 13.8207 22.5695 15.8376 23.6624C16.4444 23.9912 17.0189 24.2659 17.5335 24.4915C15.0851 24.665 11.1518 24.5312 7.91666 22.5075C3.73254 19.8905 1.87897 14.8391 1.34629 13.1008ZM8.62522 30.0662C9.33362 28.9376 10.679 26.8935 12.0388 25.3589C13.4211 25.6419 14.7281 25.7351 15.8047 25.744C15.8671 25.7447 15.9287 25.7449 15.9902 25.7449C16.167 25.7449 16.3395 25.7426 16.5084 25.7388C15.9168 26.7232 15.5893 27.9391 15.5893 29.2199C15.5893 29.3945 15.6028 29.5801 15.6276 29.7743C13.4614 30.225 10.2315 30.1444 8.62522 30.0662ZM19.9999 36.9677C18.7859 34.8973 16.7814 31.0872 16.7814 29.2197C16.7814 27.8105 17.2467 26.5125 18.0581 25.6502C19.0292 25.5614 19.7229 25.4345 19.9999 25.3786C20.2768 25.4345 20.9702 25.5614 21.9407 25.6502C22.7416 26.5017 23.2184 27.8278 23.2184 29.2197C23.2184 31.0872 21.214 34.8973 19.9999 36.9677ZM31.3743 30.0662C29.7683 30.1442 26.5399 30.2249 24.3721 29.774C24.3969 29.5799 24.4105 29.3943 24.4105 29.2199C24.4105 27.9363 24.0827 26.7222 23.4912 25.7388C23.6601 25.7426 23.8326 25.7449 24.0095 25.7449C24.0708 25.7449 24.133 25.7447 24.1951 25.744C25.2717 25.7351 26.5786 25.6419 27.9609 25.3589C29.3196 26.8923 30.6657 28.9373 31.3743 30.0662ZM32.0831 22.5075C28.848 24.5312 24.9145 24.665 22.466 24.4915C22.9807 24.2659 23.5551 23.9912 24.1621 23.6624C26.1789 22.5695 28.9406 20.648 30.6426 17.7001C31.5052 16.2061 32.0029 14.6084 32.2764 13.0972C35.0145 12.6424 37.5292 12.9237 38.6531 13.1013C38.1202 14.8406 36.2665 19.8908 32.0831 22.5075Z" fill="#1A2030"/>
</g>
<path d="M52.0024 32.066V8.02393H66.4183V10.6066H54.9137V18.7301H65.3381V21.3128H54.9137V32.066H52.0024ZM73.7993 8.02393V32.066H71.0289V8.02393H73.7993ZM86.199 32.4417C84.571 32.4417 83.1428 32.0543 81.9142 31.2794C80.6932 30.5047 79.7385 29.4207 79.0497 28.0276C78.3689 26.6346 78.0284 25.0068 78.0284 23.1442C78.0284 21.2658 78.3689 19.6263 79.0497 18.2253C79.7385 16.8245 80.6932 15.7366 81.9142 14.9618C83.1428 14.187 84.571 13.7996 86.199 13.7996C87.8267 13.7996 89.2512 14.187 90.472 14.9618C91.7008 15.7366 92.6555 16.8245 93.3365 18.2253C94.0251 19.6263 94.3695 21.2658 94.3695 23.1442C94.3695 25.0068 94.0251 26.6346 93.3365 28.0276C92.6555 29.4207 91.7008 30.5047 90.472 31.2794C89.2512 32.0543 87.8267 32.4417 86.199 32.4417ZM86.199 29.9529C87.4355 29.9529 88.4529 29.6359 89.2512 29.002C90.0494 28.3681 90.6403 27.5346 91.0238 26.5015C91.4072 25.4685 91.599 24.3493 91.599 23.1442C91.599 21.9389 91.4072 20.8159 91.0238 19.7749C90.6403 18.7341 90.0494 17.8928 89.2512 17.251C88.4529 16.6093 87.4355 16.2884 86.199 16.2884C84.9624 16.2884 83.9449 16.6093 83.1467 17.251C82.3484 17.8928 81.7576 18.7341 81.374 19.7749C80.9905 20.8159 80.7988 21.9389 80.7988 23.1442C80.7988 24.3493 80.9905 25.4685 81.374 26.5015C81.7576 27.5346 82.3484 28.3681 83.1467 29.002C83.9449 29.6359 84.9624 29.9529 86.199 29.9529ZM102.071 32.066L96.5765 14.0344H99.4879L103.385 27.8399H103.573L107.424 14.0344H110.382L114.185 27.7929H114.373L118.271 14.0344H121.182L115.688 32.066H112.965L109.02 18.2136H108.738L104.794 32.066H102.071ZM131.791 32.4417C130.054 32.4417 128.555 32.0582 127.295 31.2911C126.043 30.5164 125.076 29.4364 124.396 28.0511C123.723 26.6581 123.386 25.0381 123.386 23.1911C123.386 21.3442 123.723 19.7162 124.396 18.3075C125.076 16.891 126.024 15.7875 127.237 14.9971C128.457 14.1988 129.882 13.7996 131.51 13.7996C132.449 13.7996 133.376 13.9562 134.292 14.2692C135.208 14.5823 136.041 15.091 136.792 15.7953C137.544 16.4919 138.142 17.4154 138.589 18.5658C139.035 19.7162 139.258 21.1328 139.258 22.8154V23.9893H125.358V21.5946H136.44C136.44 20.5771 136.237 19.6693 135.83 18.8709C135.431 18.0728 134.859 17.4427 134.116 16.981C133.38 16.5192 132.511 16.2884 131.51 16.2884C130.406 16.2884 129.451 16.5624 128.645 17.1101C127.847 17.6501 127.233 18.3544 126.802 19.2232C126.372 20.0919 126.156 21.0232 126.156 22.0172V23.6138C126.156 24.9754 126.391 26.1298 126.861 27.0767C127.338 28.0159 128 28.7321 128.845 29.225C129.69 29.7103 130.672 29.9529 131.791 29.9529C132.519 29.9529 133.177 29.8511 133.764 29.6476C134.358 29.4364 134.871 29.1233 135.301 28.7086C135.732 28.286 136.065 27.7615 136.299 27.1354L138.976 27.8868C138.694 28.7946 138.221 29.5929 137.555 30.2817C136.89 30.9625 136.068 31.4948 135.09 31.8782C134.112 32.2538 133.012 32.4417 131.791 32.4417ZM143.472 32.066V14.0344H146.149V16.7579H146.336C146.665 15.8658 147.26 15.1418 148.121 14.5862C148.982 14.0305 149.952 13.7527 151.032 13.7527C151.236 13.7527 151.49 13.7566 151.795 13.7644C152.1 13.7723 152.331 13.784 152.488 13.7996V16.6171C152.394 16.5936 152.179 16.5584 151.842 16.5114C151.514 16.4566 151.165 16.4292 150.797 16.4292C149.921 16.4292 149.138 16.6131 148.45 16.981C147.769 17.341 147.229 17.8419 146.829 18.4837C146.438 19.1176 146.242 19.8415 146.242 20.6554V32.066H143.472ZM174.646 18.0728L172.157 18.7771C172 18.3624 171.77 17.9592 171.465 17.568C171.167 17.1688 170.76 16.8402 170.243 16.5819C169.727 16.3236 169.066 16.1945 168.26 16.1945C167.155 16.1945 166.236 16.4488 165.501 16.9576C164.773 17.4584 164.409 18.0962 164.409 18.8709C164.409 19.5597 164.659 20.1037 165.16 20.5029C165.661 20.9019 166.443 21.2346 167.508 21.5007L170.185 22.1581C171.797 22.5493 172.998 23.148 173.789 23.9541C174.579 24.7524 174.974 25.7815 174.974 27.0415C174.974 28.0746 174.678 28.9981 174.083 29.8121C173.496 30.626 172.673 31.2676 171.617 31.7372C170.56 32.2068 169.332 32.4417 167.931 32.4417C166.091 32.4417 164.57 32.0425 163.364 31.2442C162.159 30.446 161.396 29.2799 161.075 27.746L163.705 27.0885C163.955 28.059 164.429 28.7868 165.125 29.2721C165.83 29.7572 166.749 29.9999 167.884 29.9999C169.175 29.9999 170.2 29.726 170.959 29.1781C171.726 28.6225 172.109 27.9572 172.109 27.1825C172.109 26.5564 171.891 26.0319 171.453 25.6095C171.015 25.1789 170.341 24.8581 169.433 24.6468L166.428 23.9424C164.777 23.5511 163.564 22.9445 162.789 22.1228C162.022 21.2933 161.639 20.2562 161.639 19.0119C161.639 17.9944 161.924 17.0944 162.495 16.3119C163.075 15.5292 163.861 14.9149 164.855 14.4688C165.856 14.0227 166.992 13.7996 168.26 13.7996C170.043 13.7996 171.445 14.191 172.463 14.9736C173.488 15.7562 174.215 16.7893 174.646 18.0728ZM188.818 8.02393H192.293L200.463 27.9807H200.746L208.916 8.02393H212.39V32.066H209.666V13.7996H209.432L201.919 32.066H199.289L191.777 13.7996H191.542V32.066H188.818V8.02393ZM225.412 32.4417C223.675 32.4417 222.177 32.0582 220.916 31.2911C219.665 30.5164 218.698 29.4364 218.017 28.0511C217.344 26.6581 217.007 25.0381 217.007 23.1911C217.007 21.3442 217.344 19.7162 218.017 18.3075C218.698 16.891 219.645 15.7875 220.858 14.9971C222.078 14.1988 223.503 13.7996 225.131 13.7996C226.07 13.7996 226.997 13.9562 227.913 14.2692C228.828 14.5823 229.661 15.091 230.413 15.7953C231.164 16.4919 231.764 17.4154 232.21 18.5658C232.655 19.7162 232.878 21.1328 232.878 22.8154V23.9893H218.979V21.5946H230.061C230.061 20.5771 229.858 19.6693 229.451 18.8709C229.051 18.0728 228.479 17.4427 227.737 16.981C227.002 16.5192 226.132 16.2884 225.131 16.2884C224.027 16.2884 223.073 16.5624 222.266 17.1101C221.468 17.6501 220.853 18.3544 220.423 19.2232C219.992 20.0919 219.777 21.0232 219.777 22.0172V23.6138C219.777 24.9754 220.012 26.1298 220.481 27.0767C220.959 28.0159 221.62 28.7321 222.466 29.225C223.311 29.7103 224.293 29.9529 225.412 29.9529C226.141 29.9529 226.797 29.8511 227.385 29.6476C227.979 29.4364 228.493 29.1233 228.922 28.7086C229.352 28.286 229.686 27.7615 229.921 27.1354L232.597 27.8868C232.314 28.7946 231.841 29.5929 231.177 30.2817C230.511 30.9625 229.689 31.4948 228.711 31.8782C227.732 32.2538 226.633 32.4417 225.412 32.4417ZM244.372 39.2035C243.033 39.2035 241.883 39.0313 240.919 38.687C239.957 38.3505 239.155 37.9043 238.513 37.3486C237.879 36.8009 237.375 36.2139 236.998 35.5878L239.207 34.0382C239.456 34.3668 239.774 34.7425 240.157 35.1652C240.541 35.5956 241.065 35.9673 241.731 36.2804C242.403 36.6012 243.283 36.7617 244.372 36.7617C245.827 36.7617 247.028 36.4095 247.975 35.7052C248.922 35.0009 249.395 33.8974 249.395 32.3948V28.7321H249.16C248.957 29.0607 248.668 29.4676 248.293 29.9529C247.924 30.4303 247.392 30.8569 246.696 31.2324C246.007 31.6004 245.076 31.7842 243.901 31.7842C242.446 31.7842 241.139 31.4399 239.98 30.7511C238.83 30.0625 237.919 29.0607 237.245 27.746C236.58 26.4311 236.248 24.8346 236.248 22.9562C236.248 21.1093 236.572 19.501 237.222 18.1314C237.871 16.7541 238.775 15.6897 239.934 14.9384C241.093 14.1792 242.43 13.7996 243.949 13.7996C245.122 13.7996 246.055 13.9953 246.742 14.3866C247.44 14.7701 247.972 15.2084 248.339 15.7014C248.714 16.1866 249.005 16.5858 249.208 16.8989H249.489V14.0344H252.165V32.5825C252.165 34.1321 251.813 35.3921 251.109 36.3625C250.413 37.3409 249.475 38.0569 248.293 38.5108C247.117 38.9726 245.812 39.2035 244.372 39.2035ZM244.278 29.2956C245.389 29.2956 246.327 29.0412 247.094 28.5324C247.861 28.0238 248.445 27.2919 248.843 26.3372C249.243 25.3824 249.443 24.2399 249.443 22.9093C249.443 21.6101 249.246 20.4637 248.856 19.4698C248.465 18.4757 247.884 17.6971 247.117 17.1336C246.351 16.5701 245.405 16.2884 244.278 16.2884C243.103 16.2884 242.126 16.5858 241.342 17.1805C240.567 17.7754 239.985 18.5736 239.594 19.5754C239.21 20.5771 239.018 21.6885 239.018 22.9093C239.018 24.1615 239.213 25.269 239.605 26.2316C240.003 27.1863 240.592 27.9377 241.365 28.4855C242.149 29.0255 243.119 29.2956 244.278 29.2956ZM262.544 32.4886C261.402 32.4886 260.364 32.2734 259.433 31.843C258.501 31.4047 257.762 30.7748 257.213 29.9529C256.666 29.1233 256.392 28.1215 256.392 26.9476C256.392 25.9146 256.595 25.0772 257.003 24.4354C257.41 23.7858 257.954 23.2772 258.635 22.9093C259.316 22.5415 260.066 22.2676 260.888 22.0876C261.717 21.8997 262.552 21.7511 263.389 21.6415C264.484 21.5007 265.372 21.3949 266.053 21.3245C266.742 21.2463 267.243 21.1171 267.557 20.9371C267.878 20.7571 268.038 20.444 268.038 19.9981V19.904C268.038 18.7458 267.721 17.8458 267.086 17.204C266.461 16.5624 265.509 16.2414 264.235 16.2414C262.911 16.2414 261.875 16.5309 261.122 17.1101C260.372 17.6893 259.843 18.3075 259.539 18.965L256.909 18.0258C257.379 16.9301 258.005 16.0771 258.787 15.4666C259.577 14.8484 260.438 14.4179 261.37 14.1753C262.309 13.9249 263.233 13.7996 264.141 13.7996C264.719 13.7996 265.385 13.8701 266.136 14.0109C266.894 14.144 267.627 14.4218 268.331 14.8445C269.043 15.2671 269.635 15.9049 270.104 16.7579C270.574 17.611 270.808 18.7536 270.808 20.1858V32.066H268.038V29.6242H267.896C267.709 30.0156 267.395 30.4343 266.957 30.8804C266.519 31.3265 265.936 31.706 265.208 32.019C264.481 32.3321 263.592 32.4886 262.544 32.4886ZM262.967 29.9999C264.061 29.9999 264.985 29.7847 265.737 29.3543C266.496 28.9238 267.068 28.3681 267.451 27.6873C267.841 27.0063 268.038 26.2903 268.038 25.5389V23.0032C267.921 23.1442 267.661 23.2733 267.263 23.3906C266.871 23.5002 266.418 23.5981 265.901 23.6842C265.392 23.7624 264.896 23.8328 264.41 23.8954C263.932 23.9503 263.546 23.9972 263.248 24.0362C262.527 24.1303 261.855 24.2829 261.228 24.4941C260.61 24.6976 260.109 25.0068 259.726 25.4215C259.351 25.8285 259.162 26.3842 259.162 27.0885C259.162 28.0511 259.519 28.779 260.232 29.2721C260.951 29.7572 261.863 29.9999 262.967 29.9999Z" fill="#FF558A"/>
<path d="M158.213 8.02393V10.137C158.213 10.7787 158.096 11.4635 157.861 12.1914C157.634 12.9114 157.298 13.6118 156.852 14.2927C156.413 14.9658 155.881 15.5527 155.255 16.0536L153.752 14.8327C154.245 14.1284 154.672 13.3966 155.032 12.6375C155.4 11.8705 155.584 11.0527 155.584 10.1839V8.02393H158.213Z" fill="#73D982"/>
</svg>
