<svg width="48" height="48" viewBox="0 0 48 48" fill="none" xmlns="http://www.w3.org/2000/svg">
<path d="M8.72727 17.6V44H0V17.6H8.72727ZM17.4545 44C16.2972 44 15.1873 43.5364 14.369 42.7113C13.5506 41.8861 13.0909 40.767 13.0909 39.6V17.6C13.0909 16.39 13.5709 15.29 14.3782 14.498L28.7345 0L31.0473 2.332C31.6364 2.926 32.0073 3.74 32.0073 4.642L31.9418 5.346L29.8691 15.4H43.6364C44.7937 15.4 45.9036 15.8636 46.7219 16.6887C47.5403 17.5139 48 18.633 48 19.8V24.2C48 24.772 47.8909 25.3 47.6945 25.806L41.1055 41.316C40.4509 42.9 38.9018 44 37.0909 44H17.4545ZM17.4545 39.6H37.1564L43.6364 24.2V19.8H24.4582L26.9236 8.096L17.4545 17.666V39.6Z" fill="white"/>
</svg>
