<svg width="49" height="48" viewBox="0 0 49 48" fill="none" xmlns="http://www.w3.org/2000/svg">
<g clip-path="url(#clip0_25_16203)">
<path d="M42.3841 26.4764C41.8542 26.4764 41.3002 26.3073 40.7703 26.1866C39.6972 25.9494 38.6426 25.6345 37.6149 25.2444C36.4975 24.8368 35.2693 24.8579 34.1665 25.3039C33.0637 25.7498 32.1644 26.5891 31.6415 27.6601L31.1116 28.7472C28.7656 27.4383 26.6098 25.8127 24.7046 23.9158C22.8132 22.0051 21.1924 19.843 19.8873 17.4902L20.8989 16.8138C21.9668 16.2894 22.8036 15.3874 23.2483 14.2814C23.693 13.1754 23.7141 11.9436 23.3076 10.8229C22.9251 9.79005 22.6113 8.7329 22.3682 7.65842C22.2478 7.12697 22.1514 6.57137 22.0792 6.01577C21.7867 4.31422 20.898 2.77332 19.5733 1.67057C18.2485 0.567811 16.5747 -0.024335 14.8532 0.000766497H7.62728C6.58923 -0.00900858 5.56126 0.205647 4.61337 0.63012C3.66547 1.05459 2.81989 1.67892 2.13419 2.46059C1.4485 3.24227 0.938793 4.16294 0.639768 5.15993C0.340743 6.15693 0.259422 7.20683 0.401341 8.23818C1.68452 18.3583 6.29296 27.7613 13.4987 34.9618C20.7045 42.1623 30.0968 46.7499 40.1922 48H41.1075C42.8836 48.0026 44.5986 47.349 45.9248 46.1641C46.6868 45.4806 47.2955 44.6426 47.7107 43.7057C48.1259 42.7688 48.3382 41.7541 48.3334 40.7288V33.4819C48.3039 31.8039 47.6947 30.1882 46.6096 28.9106C45.5246 27.633 44.0311 26.7727 42.3841 26.4764ZM43.5884 40.9704C43.588 41.3134 43.5147 41.6524 43.3735 41.9647C43.2323 42.2771 43.0264 42.5558 42.7694 42.7822C42.5011 43.0165 42.1865 43.1914 41.8461 43.2955C41.5058 43.3995 41.1474 43.4304 40.7944 43.3861C31.7737 42.2261 23.3949 38.0873 16.9794 31.6225C10.5639 25.1577 6.47694 16.7349 5.36315 7.68257C5.32482 7.32872 5.35842 6.97075 5.46191 6.63029C5.56541 6.28983 5.73666 5.97395 5.96532 5.70173C6.19103 5.44406 6.46887 5.23754 6.78035 5.09592C7.09183 4.95431 7.42981 4.88084 7.7718 4.88041H14.9977C15.5579 4.86791 16.1048 5.05163 16.5444 5.39994C16.9841 5.74826 17.2889 6.23939 17.4064 6.78878C17.5027 7.44906 17.6232 8.10129 17.7677 8.74547C18.0459 10.0189 18.4162 11.2703 18.8757 12.4897L15.5036 14.0599C15.2152 14.1926 14.9559 14.3811 14.7404 14.6146C14.5249 14.848 14.3575 15.1219 14.2479 15.4204C14.1382 15.7189 14.0884 16.0363 14.1014 16.3541C14.1143 16.672 14.1897 16.9842 14.3233 17.2728C17.7898 24.7197 23.7586 30.7058 31.1839 34.1824C31.7703 34.424 32.428 34.424 33.0144 34.1824C33.3148 34.0746 33.5909 33.9081 33.8265 33.6925C34.0622 33.4768 34.2529 33.2164 34.3874 32.9263L35.8807 29.5443C37.1259 29.9909 38.3968 30.362 39.6864 30.6555C40.3287 30.8005 40.979 30.9213 41.6374 31.0179C42.1852 31.1357 42.6749 31.4414 43.0222 31.8823C43.3695 32.3232 43.5527 32.8718 43.5402 33.4335L43.5884 40.9704Z" fill="white"/>
</g>
<defs>
<clipPath id="clip0_25_16203">
<rect width="48" height="48" fill="white" transform="translate(0.333496)"/>
</clipPath>
</defs>
</svg>
