<svg width="48" height="48" viewBox="0 0 48 48" fill="none" xmlns="http://www.w3.org/2000/svg">
<g clip-path="url(#clip0_25_16187)">
<path d="M41.9156 8.08125C37.5281 3.13125 31.1437 0 24 0C10.7438 0 0 10.7438 0 24H6C6 14.0531 14.0531 6 24 6C29.4844 6 34.35 8.48438 37.6406 12.3563L31.9969 18H48V1.99687L41.9156 8.08125ZM24 42C18.5156 42 13.65 39.5156 10.3594 35.6438L16.0031 30H0V46.0031L6.08438 39.9187C10.4719 44.8687 16.8656 48 24 48C37.2562 48 48 37.2562 48 24H42C42 33.9469 33.9469 42 24 42Z" fill="white"/>
</g>
<defs>
<clipPath id="clip0_25_16187">
<rect width="48" height="48" fill="white"/>
</clipPath>
</defs>
</svg>
