<svg width="49" height="48" viewBox="0 0 49 48" fill="none" xmlns="http://www.w3.org/2000/svg">
<g clip-path="url(#clip0_25_16195)">
<path d="M0.666504 25.1053V36.1579C0.666504 36.7442 0.896373 37.3064 1.30554 37.721C1.71471 38.1355 2.26967 38.3684 2.84832 38.3684H5.03014C5.03014 40.1272 5.71975 41.814 6.94726 43.0577C8.17477 44.3013 9.83963 45 11.5756 45C13.3116 45 14.9764 44.3013 16.2039 43.0577C17.4314 41.814 18.121 40.1272 18.121 38.3684H31.212C31.212 40.1272 31.9016 41.814 33.1291 43.0577C34.3566 44.3013 36.0215 45 37.7574 45C39.4934 45 41.1582 44.3013 42.3857 43.0577C43.6133 41.814 44.3029 40.1272 44.3029 38.3684H46.4847C47.0633 38.3684 47.6183 38.1355 48.0275 37.721C48.4366 37.3064 48.6665 36.7442 48.6665 36.1579V9.63158C48.6665 7.87277 47.9769 6.18601 46.7494 4.94234C45.5219 3.69868 43.857 3 42.1211 3H22.4847C20.7487 3 19.0839 3.69868 17.8563 4.94234C16.6288 6.18601 15.9392 7.87277 15.9392 9.63158V14.0526H11.5756C10.5594 14.0526 9.55725 14.2923 8.64838 14.7527C7.73951 15.2132 6.94892 15.8816 6.33923 16.7053L1.10287 23.7789C1.03905 23.875 0.987721 23.979 0.95014 24.0884L0.819231 24.3316C0.722939 24.5781 0.671206 24.8402 0.666504 25.1053ZM35.5756 38.3684C35.5756 37.9312 35.7036 37.5038 35.9433 37.1403C36.183 36.7768 36.5238 36.4935 36.9225 36.3262C37.3211 36.1589 37.7598 36.1151 38.1831 36.2004C38.6063 36.2857 38.9951 36.4962 39.3002 36.8053C39.6053 37.1145 39.8131 37.5084 39.8973 37.9372C39.9815 38.366 39.9383 38.8104 39.7732 39.2144C39.608 39.6183 39.3284 39.9635 38.9696 40.2064C38.6108 40.4493 38.1889 40.5789 37.7574 40.5789C37.1788 40.5789 36.6238 40.3461 36.2146 39.9315C35.8055 39.5169 35.5756 38.9547 35.5756 38.3684ZM20.3029 9.63158C20.3029 9.04531 20.5327 8.48306 20.9419 8.0685C21.3511 7.65395 21.906 7.42105 22.4847 7.42105H42.1211C42.6997 7.42105 43.2547 7.65395 43.6638 8.0685C44.073 8.48306 44.3029 9.04531 44.3029 9.63158V33.9474H42.601C41.9876 33.2635 41.2398 32.7171 40.4057 32.3433C39.5716 31.9694 38.6695 31.7762 37.7574 31.7762C36.8453 31.7762 35.9433 31.9694 35.1092 32.3433C34.275 32.7171 33.5273 33.2635 32.9138 33.9474H20.3029V9.63158ZM15.9392 22.8947H7.21196L9.83014 19.3579C10.0334 19.0834 10.2969 18.8605 10.5999 18.7071C10.9028 18.5536 11.2369 18.4737 11.5756 18.4737H15.9392V22.8947ZM9.39378 38.3684C9.39378 37.9312 9.52174 37.5038 9.76148 37.1403C10.0012 36.7768 10.342 36.4935 10.7407 36.3262C11.1393 36.1589 11.578 36.1151 12.0012 36.2004C12.4245 36.2857 12.8132 36.4962 13.1184 36.8053C13.4235 37.1145 13.6313 37.5084 13.7155 37.9372C13.7997 38.366 13.7565 38.8104 13.5913 39.2144C13.4262 39.6183 13.1465 39.9635 12.7877 40.2064C12.429 40.4493 12.0071 40.5789 11.5756 40.5789C10.9969 40.5789 10.442 40.3461 10.0328 39.9315C9.62365 39.5169 9.39378 38.9547 9.39378 38.3684ZM5.03014 27.3158H15.9392V33.4611C14.6516 32.2951 12.9613 31.692 11.2367 31.7831C9.51214 31.8742 7.89295 32.6521 6.73196 33.9474H5.03014V27.3158Z" fill="white"/>
</g>
<defs>
<clipPath id="clip0_25_16195">
<rect width="48" height="48" fill="white" transform="translate(0.666504)"/>
</clipPath>
</defs>
</svg>
