<svg width="485" height="174" viewBox="0 0 485 174" fill="none" xmlns="http://www.w3.org/2000/svg">
<path d="M0.5 141.715V116.651L74.1441 0H94.9915V35.6836H82.2797L32.7034 114.442V115.802H135.5V141.715H0.5ZM83.2966 174V134.068L83.6356 122.854V0H113.297V174H83.2966Z" fill="#FF749F"/>
<g clip-path="url(#clip0_356_42168)">
<path d="M307.196 104.235C307.171 104.21 307.147 104.187 307.122 104.163C306.425 104.463 305.711 104.731 304.979 104.959C309.002 112.953 307.84 122.885 301.489 129.756L315.914 144.181C317.086 145.353 317.086 147.25 315.914 148.422C315.328 149.008 314.561 149.3 313.794 149.3C313.027 149.3 312.26 149.008 311.674 148.422L296.837 133.584C290.332 137.583 282.202 137.884 275.453 134.486C274.78 136.644 273.782 138.656 272.52 140.472C289.3 156.82 310.765 164.125 328.969 161.475C331.661 142.985 324.089 121.127 307.196 104.235Z" fill="#73D982"/>
<path d="M296.836 133.583L311.674 148.421C312.26 149.006 313.026 149.299 313.794 149.299C314.561 149.299 315.328 149.006 315.914 148.421C317.085 147.249 317.085 145.352 315.914 144.18L301.488 129.755C301.29 129.969 301.092 130.183 300.884 130.391C299.637 131.638 298.275 132.698 296.836 133.583Z" fill="#73D982"/>
<path d="M274.379 99.6445L286.258 111.524C287.43 112.695 287.43 114.593 286.258 115.765C285.672 116.35 284.906 116.643 284.138 116.643C283.371 116.643 282.604 116.35 282.018 115.765L270.139 103.885C274.038 112.2 276.444 121.937 276.444 127.939C276.444 130.219 276.097 132.418 275.453 134.485C282.203 137.882 290.333 137.582 296.837 133.583C298.276 132.698 299.638 131.638 300.885 130.391C301.093 130.183 301.292 129.97 301.49 129.755C307.841 122.885 309.003 112.953 304.98 104.959C302.912 105.603 300.713 105.95 298.434 105.95C292.43 105.95 282.693 103.544 274.379 99.6445Z" fill="#FF558A"/>
<path d="M238.768 103.885L226.889 115.765C226.303 116.35 225.536 116.643 224.769 116.643C224.001 116.643 223.234 116.35 222.649 115.765C221.477 114.593 221.477 112.695 222.649 111.524L234.528 99.6445C226.214 103.543 216.476 105.95 210.474 105.95C208.171 105.95 205.952 105.594 203.866 104.938C199.734 113.176 201.099 123.468 207.974 130.343C214.864 137.233 225.188 138.589 233.436 134.422C232.804 132.373 232.463 130.196 232.463 127.939C232.463 121.937 234.869 112.2 238.768 103.885Z" fill="#FF558A"/>
<path d="M188.693 86.9587H173.491C171.836 86.9587 170.493 85.6176 170.493 83.9601C170.493 82.3026 171.836 80.9615 173.491 80.9615H188.693C189.861 72.4043 195.946 65.4135 204.012 62.9371C203.919 62.7508 203.823 62.5652 203.736 62.3767L183.91 48.762C182.544 47.825 182.197 45.9569 183.136 44.5921C184.073 43.2274 185.94 42.8792 187.304 43.8189L201.693 53.7003C201.556 48.8325 203.025 43.9302 206.103 39.8529C193.765 34.2849 181.016 33.0637 170.776 36.1054C171.596 46.5281 177.089 57.7289 186.349 67.1231C173.199 69.5692 162.152 75.738 155.5 83.9601C164.012 94.4802 179.716 101.642 197.818 101.937C192.947 98.5024 189.537 93.141 188.693 86.9587Z" fill="#73D982"/>
<path d="M170.492 83.96C170.492 85.6175 171.835 86.9586 173.491 86.9586H188.692C188.559 85.9777 188.484 84.978 188.484 83.96C188.484 82.942 188.559 81.9423 188.692 80.9614H173.491C171.835 80.9614 170.492 82.3029 170.492 83.96Z" fill="#73D982"/>
<path d="M187.303 43.8194C185.939 42.8793 184.072 43.2279 183.135 44.5927C182.197 45.9574 182.544 47.8255 183.909 48.7625L203.735 62.3772C202.453 59.6298 201.776 56.6724 201.692 53.7008L187.303 43.8194Z" fill="#73D982"/>
<path d="M291.078 31.9159L297 24.3314C298.021 23.0255 299.905 22.7939 301.208 23.813C302.514 24.8322 302.746 26.7149 301.727 28.0212L296.767 34.3729C298.214 35.2601 299.584 36.325 300.837 37.578C302.973 39.7145 304.577 42.1816 305.65 44.8143C311.076 33.5067 312.697 21.7616 310.435 11.9941C298.36 12.2033 284.867 18.5704 274.02 29.95C274.594 31.0677 275.08 32.2375 275.458 33.4561C280.327 31.0227 285.907 30.5096 291.078 31.9159Z" fill="#73D982"/>
<path d="M301.727 28.0208C302.746 26.7149 302.515 24.8318 301.208 23.8126C299.905 22.7935 298.021 23.0248 297 24.331L291.078 31.9159C293.056 32.4538 294.973 33.2724 296.767 34.3725L301.727 28.0208Z" fill="#73D982"/>
<path d="M201.692 53.7004C201.776 56.6716 202.453 59.6293 203.735 62.3768C203.822 62.5653 203.918 62.7509 204.012 62.9371C206.055 62.3097 208.224 61.9705 210.473 61.9705C216.476 61.9705 226.213 64.3765 234.528 68.2757L222.648 56.3961C221.477 55.2248 221.477 53.3271 222.648 52.1558C223.82 50.9844 225.717 50.9844 226.889 52.1558L238.768 64.0354C234.869 55.7207 232.463 45.9836 232.463 39.9808C232.463 37.6857 232.816 35.4735 233.468 33.394C225.239 29.2957 214.978 30.6698 208.119 37.5291C207.382 38.2656 206.714 39.0441 206.103 39.8526C203.025 43.9299 201.555 48.8322 201.692 53.7004Z" fill="#FF558A"/>
<path d="M296.766 34.3728C294.971 33.2727 293.055 32.4541 291.077 31.9162C285.906 30.5099 280.326 31.0234 275.457 33.4567C276.097 35.5182 276.442 37.7094 276.442 39.9816C276.442 45.984 274.036 55.7211 270.137 64.0362L282.016 52.1566C283.188 50.9853 285.085 50.9853 286.257 52.1566C287.428 53.3279 287.428 55.2256 286.257 56.397L274.377 68.2766C282.692 64.3777 292.429 61.9713 298.432 61.9713C300.703 61.9713 302.895 62.3161 304.957 62.956C307.792 57.2838 308.026 50.6438 305.649 44.8149C304.576 42.1822 302.972 39.7151 300.835 37.5786C299.582 36.3248 298.213 35.26 296.766 34.3728Z" fill="#FF558A"/>
<path d="M241.168 95.9692C239.149 97.3017 236.897 98.5338 234.528 99.6444L222.648 111.524C221.477 112.695 221.477 114.593 222.648 115.764C223.234 116.35 224.001 116.643 224.768 116.643C225.535 116.643 226.303 116.35 226.888 115.764L238.768 103.885C239.879 101.515 241.111 99.2632 242.443 97.2444C241.997 96.8411 241.572 96.4153 241.168 95.9692Z" fill="#FF749F"/>
<path d="M267.738 71.9513C269.757 70.6188 272.009 69.3868 274.378 68.2758L286.258 56.3962C287.429 55.2249 287.429 53.3272 286.258 52.1558C285.087 50.9845 283.189 50.9845 282.018 52.1558L270.138 64.0355C269.027 66.4043 267.795 68.657 266.463 70.6754C266.909 71.0795 267.334 71.5053 267.738 71.9513Z" fill="#FF749F"/>
<path d="M284.138 116.643C284.905 116.643 285.673 116.35 286.258 115.764C287.429 114.593 287.429 112.695 286.258 111.524L274.378 99.6444C272.01 98.5334 269.757 97.3017 267.738 95.9692C267.334 96.4153 266.909 96.8411 266.463 97.2444C267.795 99.2628 269.027 101.515 270.138 103.885L282.018 115.764C282.604 116.35 283.371 116.643 284.138 116.643Z" fill="#FF749F"/>
<path d="M242.444 70.6758C241.111 68.6574 239.879 66.4047 238.768 64.0354L226.888 52.1558C225.717 50.9845 223.819 50.9845 222.648 52.1558C221.477 53.3272 221.477 55.2249 222.648 56.3962L234.528 68.2758C236.897 69.3868 239.149 70.6185 241.168 71.951C241.572 71.5049 241.997 71.0795 242.444 70.6758Z" fill="#FF749F"/>
<path d="M276.442 127.94C276.442 121.937 274.036 112.2 270.137 103.885C269.026 101.516 267.794 99.2634 266.462 97.2446C263.988 99.4823 260.885 101.035 257.451 101.614V125.94C257.451 127.598 256.109 128.939 254.453 128.939C252.797 128.939 251.454 127.598 251.454 125.94V101.614C248.02 101.035 244.917 99.4823 242.443 97.2446C241.111 99.2634 239.879 101.516 238.768 103.885C234.869 112.2 232.463 121.937 232.463 127.94C232.463 130.196 232.804 132.373 233.436 134.423C236.202 143.403 244.565 149.929 254.453 149.929C261.939 149.929 268.547 146.185 272.518 140.471C273.78 138.655 274.779 136.643 275.451 134.485C276.095 132.418 276.442 130.219 276.442 127.94Z" fill="#FFBACF"/>
<path d="M238.768 64.0355C239.879 66.4048 241.111 68.6571 242.444 70.6759C244.917 68.4382 248.02 66.8853 251.454 66.3062V41.9798C251.454 40.3224 252.797 38.9813 254.453 38.9813C256.109 38.9813 257.452 40.3224 257.452 41.9798V66.3058C260.885 66.8849 263.988 68.4378 266.462 70.6755C267.795 68.6571 269.027 66.4044 270.137 64.0355C274.036 55.7208 276.443 45.9833 276.443 39.9809C276.443 37.7091 276.098 35.5175 275.458 33.456C275.08 32.2375 274.593 31.0673 274.019 29.9499C270.372 22.8512 262.982 17.9912 254.453 17.9912C244.603 17.9912 236.267 24.4678 233.468 33.3942C232.816 35.474 232.463 37.6862 232.463 39.9809C232.463 45.9833 234.869 55.7204 238.768 64.0355Z" fill="#FFBACF"/>
<path d="M234.528 99.6444C236.897 98.5334 239.15 97.3017 241.169 95.9692C238.931 93.4954 237.378 90.3926 236.799 86.9585H212.473C210.817 86.9585 209.474 85.6174 209.474 83.9599C209.474 82.3025 210.817 80.9613 212.473 80.9613H236.799C237.378 77.5276 238.931 74.4248 241.169 71.9506C239.15 70.6181 236.898 69.3865 234.528 68.2755C226.214 64.3766 216.476 61.9702 210.474 61.9702C208.225 61.9702 206.056 62.3094 204.012 62.9369C195.946 65.413 189.86 72.4041 188.693 80.9613C188.559 81.9426 188.484 82.9423 188.484 83.9599C188.484 84.9776 188.559 85.9776 188.693 86.9585C189.537 93.1404 192.947 98.5019 197.818 101.937C199.649 103.228 201.683 104.25 203.866 104.938C205.952 105.594 208.171 105.95 210.474 105.95C216.476 105.95 226.214 103.544 234.528 99.6444Z" fill="#FFBACF"/>
<path d="M274.379 68.2755C272.01 69.3865 269.757 70.6185 267.738 71.951C269.976 74.4248 271.529 77.5276 272.108 80.9617H296.434C298.09 80.9617 299.433 82.3028 299.433 83.9603C299.433 85.6178 298.09 86.9589 296.434 86.9589H272.108C271.529 90.3926 269.976 93.4954 267.738 95.9696C269.757 97.3021 272.009 98.5341 274.379 99.6447C282.693 103.544 292.43 105.95 298.433 105.95C300.713 105.95 302.912 105.603 304.979 104.959C305.711 104.731 306.426 104.463 307.123 104.163C314.945 100.794 320.423 93.0179 320.423 83.9599C320.423 74.0875 313.916 65.7346 304.958 62.9549C302.896 62.3151 300.705 61.9702 298.433 61.9702C292.43 61.9706 282.693 64.3766 274.379 68.2755Z" fill="#FFBACF"/>
<path d="M236.544 83.96C236.544 82.9375 236.635 81.9371 236.799 80.9614H212.473C210.817 80.9614 209.475 82.3025 209.475 83.96C209.475 85.6175 210.817 86.9586 212.473 86.9586H236.799C236.635 85.9833 236.544 84.9825 236.544 83.96Z" fill="#FF558A"/>
<path d="M272.362 83.96C272.362 84.9825 272.272 85.9829 272.107 86.9586H296.434C298.09 86.9586 299.432 85.6175 299.432 83.96C299.432 82.3025 298.09 80.9614 296.434 80.9614H272.108C272.272 81.9371 272.362 82.9379 272.362 83.96Z" fill="#FF558A"/>
<path d="M254.454 101.869C253.432 101.869 252.431 101.779 251.455 101.614V125.94C251.455 127.598 252.798 128.939 254.454 128.939C256.11 128.939 257.452 127.598 257.452 125.94V101.614C256.477 101.779 255.476 101.869 254.454 101.869Z" fill="#FF558A"/>
<path d="M254.454 66.0515C255.476 66.0515 256.477 66.1418 257.452 66.3064V41.98C257.452 40.3226 256.11 38.9814 254.454 38.9814C252.798 38.9814 251.455 40.3226 251.455 41.98V66.306C252.431 66.1418 253.432 66.0515 254.454 66.0515Z" fill="#FF558A"/>
<path d="M267.738 95.9695C269.976 93.4956 271.529 90.3929 272.108 86.9587C272.273 85.9831 272.363 84.9827 272.363 83.9602C272.363 82.9377 272.273 81.9373 272.108 80.9616C271.529 77.5278 269.976 74.4251 267.738 71.9509C267.335 71.5048 266.909 71.079 266.463 70.6753C263.989 68.4377 260.887 66.8851 257.453 66.3057C256.477 66.1411 255.476 66.0508 254.454 66.0508C253.432 66.0508 252.431 66.1411 251.455 66.3057C248.022 66.8848 244.919 68.4377 242.445 70.6753C241.999 71.079 241.573 71.5044 241.169 71.9505C238.932 74.4243 237.379 77.5271 236.8 80.9612C236.635 81.9369 236.545 82.9373 236.545 83.9598C236.545 84.9823 236.635 85.9827 236.8 86.9584C237.379 90.3921 238.931 93.4949 241.169 95.9691C241.573 96.4151 241.999 96.8409 242.445 97.2442C244.918 99.4819 248.021 101.035 251.455 101.614C252.431 101.778 253.432 101.869 254.454 101.869C255.476 101.869 256.477 101.778 257.453 101.614C260.886 101.035 263.989 99.4819 266.463 97.2442C266.909 96.8413 267.335 96.4155 267.738 95.9695ZM254.454 92.8734C249.531 92.8734 245.541 88.8831 245.541 83.9602C245.541 79.0373 249.531 75.0469 254.454 75.0469C259.376 75.0469 263.367 79.0373 263.367 83.9602C263.367 88.8831 259.376 92.8734 254.454 92.8734Z" fill="#FF97B7"/>
<path d="M254.452 92.8734C259.375 92.8734 263.366 88.8828 263.366 83.9601C263.366 79.0375 259.375 75.0469 254.452 75.0469C249.53 75.0469 245.539 79.0375 245.539 83.9601C245.539 88.8828 249.53 92.8734 254.452 92.8734Z" fill="#FF558A"/>
</g>
<path d="M349.5 141.715V116.651L423.144 0H443.992V35.6836H431.28L381.703 114.442V115.802H484.5V141.715H349.5ZM432.297 174V134.068L432.636 122.854V0H462.297V174H432.297Z" fill="#FF749F"/>
<defs>
<clipPath id="clip0_356_42168">
<rect width="174" height="174" fill="white" transform="translate(155.5)"/>
</clipPath>
</defs>
</svg>
