<svg width="30" height="30" viewBox="0 0 30 30" fill="none" xmlns="http://www.w3.org/2000/svg">
<rect width="30" height="30" rx="9" fill="#0088CC"/>
<path fill-rule="evenodd" clip-rule="evenodd" d="M21.3427 7.10262C21.5394 7.01176 21.7547 6.98042 21.9662 7.01187C22.1777 7.04331 22.3777 7.1364 22.5453 7.28144C22.7129 7.42647 22.842 7.61815 22.9192 7.83653C22.9964 8.05491 23.0188 8.292 22.9842 8.52312L21.1787 20.5415C21.0035 21.7008 19.8445 22.3656 18.8757 21.7881C18.0653 21.305 16.8616 20.5607 15.779 19.7841C15.2376 19.3953 13.5794 18.1504 13.7832 17.2645C13.9583 16.5071 16.7446 13.6609 18.3367 11.9687C18.9616 11.3038 18.6766 10.9203 17.9387 11.5319C16.1053 13.0502 13.1639 15.3592 12.1911 16.0092C11.3329 16.5823 10.8855 16.6801 10.3506 16.5823C9.37458 16.404 8.46945 16.128 7.7307 15.7916C6.73243 15.3373 6.78099 13.8312 7.72991 13.3927L21.3427 7.10262Z" fill="white"/>
</svg>
