<svg width="19" height="19" viewBox="0 0 19 19" fill="none" xmlns="http://www.w3.org/2000/svg">
<g clip-path="url(#clip0_601_20984)">
<path d="M9.5 19C8.20167 19 6.97458 18.7505 5.81875 18.2514C4.66292 17.7523 3.65338 17.0715 2.79015 16.2089C1.92755 15.3463 1.24672 14.3371 0.747651 13.1812C0.248584 12.0254 -0.000632129 10.7983 1.20406e-06 9.5C1.20406e-06 8.18583 0.249535 6.95463 0.748601 5.8064C1.24767 4.65817 1.9285 3.65307 2.7911 2.7911C3.6537 1.92787 4.6626 1.24703 5.8178 0.7486C6.973 0.250167 8.2004 0.000633333 9.5 0C10.8142 0 12.0454 0.249533 13.1936 0.7486C14.3418 1.24767 15.3469 1.9285 16.2089 2.7911C17.0721 3.6537 17.753 4.65912 18.2514 5.80735C18.7498 6.95558 18.9994 8.18647 19 9.5V10.8775C19 11.8117 18.6795 12.6074 18.0386 13.2648C17.3977 13.9222 16.6098 14.2506 15.675 14.25C15.105 14.25 14.5746 14.1233 14.0837 13.87C13.5929 13.6167 13.1892 13.2842 12.8725 12.8725C12.445 13.3 11.9421 13.6366 11.3639 13.8823C10.7857 14.1281 10.1644 14.2506 9.5 14.25C8.18583 14.25 7.06547 13.7867 6.1389 12.8601C5.21233 11.9336 4.74937 10.8135 4.75 9.5C4.75 8.18583 5.21328 7.06547 6.13985 6.1389C7.06642 5.21233 8.18647 4.74937 9.5 4.75C10.8142 4.75 11.9345 5.21328 12.8611 6.13985C13.7877 7.06642 14.2506 8.18647 14.25 9.5V10.8775C14.25 11.3367 14.3925 11.6967 14.6775 11.9576C14.9625 12.2186 15.295 12.3494 15.675 12.35C16.055 12.35 16.3875 12.2192 16.6725 11.9576C16.9575 11.6961 17.1 11.336 17.1 10.8775V9.5C17.1 7.42583 16.3517 5.64047 14.8551 4.1439C13.3586 2.64733 11.5735 1.89937 9.5 1.9C7.42583 1.9 5.64047 2.64828 4.1439 4.14485C2.64733 5.64142 1.89937 7.42647 1.9 9.5C1.9 11.5742 2.64828 13.3595 4.14485 14.8561C5.64142 16.3527 7.42647 17.1006 9.5 17.1H14.25V19H9.5ZM9.5 12.35C10.2917 12.35 10.9646 12.0729 11.5187 11.5187C12.0729 10.9646 12.35 10.2917 12.35 9.5C12.35 8.70833 12.0729 8.03542 11.5187 7.48125C10.9646 6.92708 10.2917 6.65 9.5 6.65C8.70833 6.65 8.03542 6.92708 7.48125 7.48125C6.92708 8.03542 6.65 8.70833 6.65 9.5C6.65 10.2917 6.92708 10.9646 7.48125 11.5187C8.03542 12.0729 8.70833 12.35 9.5 12.35Z" fill="#1A2030"/>
</g>
<defs>
<clipPath id="clip0_601_20984">
<rect width="19" height="19" fill="white"/>
</clipPath>
</defs>
</svg>
