<svg width="28" height="28" viewBox="0 0 28 28" fill="none" xmlns="http://www.w3.org/2000/svg">
<path fill-rule="evenodd" clip-rule="evenodd" d="M6.03852 6.03901C6.31189 5.76564 6.7551 5.76564 7.02847 6.03901L21.9618 20.9723C22.2352 21.2457 22.2352 21.6889 21.9618 21.9623C21.6884 22.2357 21.2452 22.2357 20.9719 21.9623L6.03852 7.02896C5.76515 6.75559 5.76515 6.31238 6.03852 6.03901Z" fill="#FF558A"/>
<path fill-rule="evenodd" clip-rule="evenodd" d="M21.9618 6.03901C22.2352 6.31238 22.2352 6.75559 21.9618 7.02896L7.02847 21.9623C6.7551 22.2357 6.31189 22.2357 6.03852 21.9623C5.76515 21.6889 5.76515 21.2457 6.03852 20.9723L20.9719 6.03901C21.2452 5.76564 21.6884 5.76564 21.9618 6.03901Z" fill="#FF558A"/>
</svg>
