<svg width="20" height="20" viewBox="0 0 20 20" fill="none" xmlns="http://www.w3.org/2000/svg">
<path fill-rule="evenodd" clip-rule="evenodd" d="M4.31344 4.31344C4.5087 4.11818 4.82528 4.11818 5.02055 4.31344L15.6872 14.9801C15.8825 15.1754 15.8825 15.4919 15.6872 15.6872C15.4919 15.8825 15.1754 15.8825 14.9801 15.6872L4.31344 5.02055C4.11818 4.82528 4.11818 4.5087 4.31344 4.31344Z" fill="white"/>
<path fill-rule="evenodd" clip-rule="evenodd" d="M15.6872 4.31344C15.8825 4.5087 15.8825 4.82528 15.6872 5.02055L5.02055 15.6872C4.82528 15.8825 4.5087 15.8825 4.31344 15.6872C4.11818 15.4919 4.11818 15.1754 4.31344 14.9801L14.9801 4.31344C15.1754 4.11818 15.4919 4.11818 15.6872 4.31344Z" fill="white"/>
</svg>
