<svg width="20" height="20" viewBox="0 0 20 20" fill="none" xmlns="http://www.w3.org/2000/svg">
<path d="M3.75 3.125L16.25 16.875" stroke="#8B8B8B" stroke-width="1.5" stroke-linecap="round" stroke-linejoin="round"/>
<path d="M12.1019 12.3122C11.4887 12.8696 10.6791 13.1606 9.85124 13.1211C9.02342 13.0817 8.24518 12.715 7.6877 12.1018C7.13021 11.4885 6.83915 10.679 6.87853 9.85114C6.91792 9.02332 7.28452 8.24504 7.8977 7.6875" stroke="#8B8B8B" stroke-linecap="round" stroke-linejoin="round"/>
<path d="M5.78082 5.35938C2.59572 6.97231 1.25 10.0005 1.25 10.0005C1.25 10.0005 3.75 15.6249 10 15.6249C11.4644 15.6366 12.9105 15.2993 14.2186 14.6409" stroke="#8B8B8B" stroke-width="1.5" stroke-linecap="round" stroke-linejoin="round"/>
<path d="M16.2982 13.2105C18.0014 11.685 18.7506 9.99965 18.7506 9.99965C18.7506 9.99965 16.2506 4.37404 10.0006 4.37404C9.45925 4.37315 8.9188 4.41716 8.38477 4.50561" stroke="#8B8B8B" stroke-width="1.5" stroke-linecap="round" stroke-linejoin="round"/>
<path d="M10.5879 6.93066C11.2521 7.0582 11.857 7.39766 12.312 7.89811C12.7669 8.39857 13.0473 9.03303 13.1112 9.70635" stroke="#8B8B8B" stroke-width="1.5" stroke-linecap="round" stroke-linejoin="round"/>
</svg>
