<svg width="20" height="20" viewBox="0 0 20 20" fill="none" xmlns="http://www.w3.org/2000/svg">
<path fill-rule="evenodd" clip-rule="evenodd" d="M6.4585 5.41667C6.4585 3.46066 8.04415 1.875 10.0002 1.875C11.9562 1.875 13.5418 3.46066 13.5418 5.41667C13.5418 7.37268 11.9562 8.95833 10.0002 8.95833C8.04415 8.95833 6.4585 7.37268 6.4585 5.41667ZM10.0002 3.125C8.73451 3.125 7.7085 4.15101 7.7085 5.41667C7.7085 6.68232 8.73451 7.70833 10.0002 7.70833C11.2658 7.70833 12.2918 6.68232 12.2918 5.41667C12.2918 4.15101 11.2658 3.125 10.0002 3.125Z" fill="white"/>
<path fill-rule="evenodd" clip-rule="evenodd" d="M7.80584 11.041H12.1942C13.1043 11.041 13.8255 11.041 14.4069 11.0885C15.0014 11.1371 15.5044 11.2384 15.9637 11.4724C16.7085 11.8519 17.3141 12.4575 17.6936 13.2023C17.9276 13.6616 18.0289 14.1647 18.0775 14.7591C18.125 15.3405 18.125 16.0617 18.125 16.9718V17.4993C18.125 17.8445 17.8452 18.1243 17.5 18.1243H2.5C2.15482 18.1243 1.875 17.8445 1.875 17.4993L1.875 16.9718C1.875 16.0617 1.87499 15.3405 1.92249 14.7591C1.97106 14.1646 2.0724 13.6616 2.30643 13.2023C2.68593 12.4575 3.29147 11.8519 4.0363 11.4724C4.49561 11.2384 4.99864 11.1371 5.59312 11.0885C6.17447 11.041 6.89572 11.041 7.80584 11.041ZM4.60377 12.5862C4.09417 12.8459 3.67985 13.2602 3.42019 13.7698C3.29091 14.0235 3.21059 14.3437 3.16834 14.8609C3.1274 15.362 3.12513 15.996 3.12501 16.8743H16.875C16.8749 15.996 16.8726 15.362 16.8317 14.8609C16.7894 14.3437 16.7091 14.0235 16.5798 13.7698C16.3202 13.2602 15.9058 12.8459 15.3962 12.5862M4.60377 12.5862C4.8575 12.4569 5.17773 12.3766 5.69491 12.3344C6.21939 12.2915 6.8896 12.291 7.83333 12.291H12.1667C13.1104 12.291 13.7806 12.2915 14.3051 12.3344C14.8223 12.3766 15.1425 12.4569 15.3962 12.5862" fill="white"/>
</svg>
