<svg width="24" height="24" viewBox="0 0 24 24" fill="none" xmlns="http://www.w3.org/2000/svg">
<path fill-rule="evenodd" clip-rule="evenodd" d="M1.25 10.5C1.25 5.39139 5.39139 1.25 10.5 1.25C15.6086 1.25 19.75 5.39139 19.75 10.5C19.75 15.6086 15.6086 19.75 10.5 19.75C5.39139 19.75 1.25 15.6086 1.25 10.5ZM10.5 2.75C6.21981 2.75 2.75 6.21981 2.75 10.5C2.75 14.7802 6.21981 18.25 10.5 18.25C14.7802 18.25 18.25 14.7802 18.25 10.5C18.25 6.21981 14.7802 2.75 10.5 2.75Z" fill="#8B8B8B"/>
<path fill-rule="evenodd" clip-rule="evenodd" d="M7.14107 6.6412C7.99987 5.78247 9.18839 5.25 10.4998 5.25C11.8113 5.25 12.9998 5.78246 13.8586 6.64122C14.1515 6.93411 14.1515 7.40899 13.8586 7.70188C13.5657 7.99477 13.0908 7.99477 12.7979 7.70188C12.209 7.11294 11.3975 6.75 10.4998 6.75C9.60218 6.75 8.7907 7.11293 8.2017 7.7019C7.9088 7.99478 7.43392 7.99476 7.14104 7.70186C6.84816 7.40896 6.84817 6.93408 7.14107 6.6412Z" fill="#8B8B8B"/>
<path fill-rule="evenodd" clip-rule="evenodd" d="M16.0805 16.081C16.3734 15.7881 16.8483 15.7881 17.1412 16.081L21.3838 20.3236C21.6767 20.6165 21.6767 21.0914 21.3838 21.3843C21.0909 21.6772 20.6161 21.6772 20.3232 21.3843L16.0805 17.1417C15.7876 16.8488 15.7876 16.3739 16.0805 16.081Z" fill="#8B8B8B"/>
</svg>
