<svg width="20" height="20" viewBox="0 0 20 20" fill="none" xmlns="http://www.w3.org/2000/svg">
<path fill-rule="evenodd" clip-rule="evenodd" d="M2.49935 3.9585C2.38429 3.9585 2.29102 4.05177 2.29102 4.16683V17.5002C2.29102 17.6152 2.38429 17.7085 2.49935 17.7085H17.4993C17.6144 17.7085 17.7077 17.6152 17.7077 17.5002V4.16683C17.7077 4.05177 17.6144 3.9585 17.4993 3.9585H2.49935ZM1.04102 4.16683C1.04102 3.36141 1.69393 2.7085 2.49935 2.7085H17.4993C18.3048 2.7085 18.9577 3.36141 18.9577 4.16683V17.5002C18.9577 18.3056 18.3048 18.9585 17.4993 18.9585H2.49935C1.69393 18.9585 1.04102 18.3056 1.04102 17.5002V4.16683Z" fill="white"/>
<path fill-rule="evenodd" clip-rule="evenodd" d="M1.04102 8.3335C1.04102 7.98832 1.32084 7.7085 1.66602 7.7085H18.3327C18.6779 7.7085 18.9577 7.98832 18.9577 8.3335C18.9577 8.67867 18.6779 8.9585 18.3327 8.9585H1.66602C1.32084 8.9585 1.04102 8.67867 1.04102 8.3335Z" fill="white"/>
<path fill-rule="evenodd" clip-rule="evenodd" d="M1.04102 13.3335C1.04102 12.9883 1.32084 12.7085 1.66602 12.7085H18.3327C18.6779 12.7085 18.9577 12.9883 18.9577 13.3335C18.9577 13.6787 18.6779 13.9585 18.3327 13.9585H1.66602C1.32084 13.9585 1.04102 13.6787 1.04102 13.3335Z" fill="white"/>
<path fill-rule="evenodd" clip-rule="evenodd" d="M7.08398 1.0415C7.42916 1.0415 7.70898 1.32133 7.70898 1.6665V4.99984C7.70898 5.34502 7.42916 5.62484 7.08398 5.62484C6.73881 5.62484 6.45898 5.34502 6.45898 4.99984V1.6665C6.45898 1.32133 6.73881 1.0415 7.08398 1.0415Z" fill="white"/>
<path fill-rule="evenodd" clip-rule="evenodd" d="M12.916 1.0415C13.2612 1.0415 13.541 1.32133 13.541 1.6665V4.99984C13.541 5.34502 13.2612 5.62484 12.916 5.62484C12.5708 5.62484 12.291 5.34502 12.291 4.99984V1.6665C12.291 1.32133 12.5708 1.0415 12.916 1.0415Z" fill="white"/>
<path fill-rule="evenodd" clip-rule="evenodd" d="M7.08398 7.7085C7.42916 7.7085 7.70898 7.98832 7.70898 8.3335V18.3335C7.70898 18.6787 7.42916 18.9585 7.08398 18.9585C6.73881 18.9585 6.45898 18.6787 6.45898 18.3335V8.3335C6.45898 7.98832 6.73881 7.7085 7.08398 7.7085Z" fill="white"/>
<path fill-rule="evenodd" clip-rule="evenodd" d="M12.916 7.7085C13.2612 7.7085 13.541 7.98832 13.541 8.3335V18.3335C13.541 18.6787 13.2612 18.9585 12.916 18.9585C12.5708 18.9585 12.291 18.6787 12.291 18.3335V8.3335C12.291 7.98832 12.5708 7.7085 12.916 7.7085Z" fill="white"/>
<path fill-rule="evenodd" clip-rule="evenodd" d="M18.334 4.7915C18.6792 4.7915 18.959 5.07133 18.959 5.4165V16.2498C18.959 16.595 18.6792 16.8748 18.334 16.8748C17.9888 16.8748 17.709 16.595 17.709 16.2498V5.4165C17.709 5.07133 17.9888 4.7915 18.334 4.7915Z" fill="white"/>
<path fill-rule="evenodd" clip-rule="evenodd" d="M1.66602 4.7915C2.01119 4.7915 2.29102 5.07133 2.29102 5.4165V16.2498C2.29102 16.595 2.01119 16.8748 1.66602 16.8748C1.32084 16.8748 1.04102 16.595 1.04102 16.2498V5.4165C1.04102 5.07133 1.32084 4.7915 1.66602 4.7915Z" fill="white"/>
<path fill-rule="evenodd" clip-rule="evenodd" d="M5.20898 18.3335C5.20898 17.9883 5.48881 17.7085 5.83398 17.7085H14.1673C14.5125 17.7085 14.7923 17.9883 14.7923 18.3335C14.7923 18.6787 14.5125 18.9585 14.1673 18.9585H5.83398C5.48881 18.9585 5.20898 18.6787 5.20898 18.3335Z" fill="white"/>
</svg>
