<svg width="20" height="20" viewBox="0 0 20 20" fill="none" xmlns="http://www.w3.org/2000/svg">
<path fill-rule="evenodd" clip-rule="evenodd" d="M3.125 7.9165C3.125 4.11953 6.20303 1.0415 10 1.0415C13.797 1.0415 16.875 4.11953 16.875 7.9165C16.875 10.8463 15.1971 13.5929 13.6105 15.5497C12.8076 16.54 12.0061 17.3546 11.4057 17.9217C11.1051 18.2056 10.8538 18.4284 10.6766 18.5812C10.588 18.6576 10.5177 18.7165 10.469 18.7569C10.4447 18.7771 10.4257 18.7926 10.4125 18.8034L10.397 18.8159L10.3926 18.8195L10.3912 18.8206L10.3908 18.821C10.3906 18.8211 10.3904 18.8212 10 18.3332C9.60957 18.8212 9.60942 18.8211 9.60924 18.821L9.60877 18.8206L9.60741 18.8195L9.603 18.8159L9.58752 18.8034C9.57429 18.7926 9.55531 18.7771 9.53096 18.7569C9.48226 18.7165 9.41205 18.6576 9.3234 18.5812C9.14616 18.4284 8.89491 18.2056 8.5943 17.9217C7.99385 17.3546 7.19244 16.54 6.38953 15.5497C4.80289 13.5929 3.125 10.8463 3.125 7.9165ZM10 18.3332L9.60957 18.8212C9.83783 19.0038 10.1622 19.0038 10.3904 18.8212L10 18.3332ZM10 17.5128C10.149 17.3816 10.3348 17.2137 10.5474 17.0129C11.1189 16.4732 11.8799 15.6993 12.6395 14.7625C14.1779 12.8651 15.625 10.4033 15.625 7.9165C15.625 4.80989 13.1066 2.2915 10 2.2915C6.89339 2.2915 4.375 4.80989 4.375 7.9165C4.375 10.4033 5.82211 12.8651 7.36047 14.7625C8.12006 15.6993 8.88115 16.4732 9.45258 17.0129C9.66521 17.2137 9.85102 17.3816 10 17.5128Z" fill="white"/>
<path fill-rule="evenodd" clip-rule="evenodd" d="M6.875 7.9165C6.875 6.19062 8.27411 4.7915 10 4.7915C11.7259 4.7915 13.125 6.19062 13.125 7.9165C13.125 9.64239 11.7259 11.0415 10 11.0415C8.27411 11.0415 6.875 9.64239 6.875 7.9165ZM10 6.0415C8.96447 6.0415 8.125 6.88097 8.125 7.9165C8.125 8.95203 8.96447 9.7915 10 9.7915C11.0355 9.7915 11.875 8.95203 11.875 7.9165C11.875 6.88097 11.0355 6.0415 10 6.0415Z" fill="white"/>
</svg>
