<svg width="21" height="20" viewBox="0 0 21 20" fill="none" xmlns="http://www.w3.org/2000/svg">
<path fill-rule="evenodd" clip-rule="evenodd" d="M2.10762 6.67832C2.22637 6.53885 2.40033 6.4585 2.5835 6.4585H18.4168C18.6 6.4585 18.774 6.53885 18.8927 6.67832C19.0115 6.81779 19.063 7.00233 19.0338 7.18317L17.2838 18.0165C17.2349 18.3193 16.9735 18.5418 16.6668 18.5418H4.3335C4.0268 18.5418 3.76541 18.3193 3.7165 18.0165L1.9665 7.18317C1.93729 7.00233 1.98888 6.81779 2.10762 6.67832ZM3.31756 7.7085L4.86564 17.2918H16.1347L17.6828 7.7085H3.31756Z" fill="white"/>
<path fill-rule="evenodd" clip-rule="evenodd" d="M5.2915 7.0835C5.2915 4.0292 7.57329 1.4585 10.4998 1.4585C13.4264 1.4585 15.7082 4.0292 15.7082 7.0835C15.7082 7.42867 15.4283 7.7085 15.0832 7.7085C14.738 7.7085 14.4582 7.42867 14.4582 7.0835C14.4582 4.61495 12.6359 2.7085 10.4998 2.7085C8.3638 2.7085 6.5415 4.61495 6.5415 7.0835C6.5415 7.42867 6.26168 7.7085 5.9165 7.7085C5.57133 7.7085 5.2915 7.42867 5.2915 7.0835Z" fill="white"/>
</svg>
